<svg width="56" height="56" viewBox="0 0 56 56" fill="none" xmlns="http://www.w3.org/2000/svg">
<path d="M51.3333 39.4796V46.4796C51.336 47.1294 51.2029 47.7726 50.9425 48.3681C50.6822 48.9635 50.3004 49.4979 49.8215 49.9373C49.3427 50.3766 48.7773 50.711 48.1618 50.9192C47.5462 51.1274 46.8939 51.2047 46.2467 51.1462C39.0666 50.3661 32.1697 47.9126 26.11 43.9829C20.4723 40.4005 15.6925 35.6206 12.11 29.9829C8.16662 23.8957 5.71257 16.9652 4.94667 9.75291C4.88836 9.10766 4.96505 8.45735 5.17184 7.84337C5.37863 7.22938 5.71101 6.66518 6.14779 6.18669C6.58458 5.7082 7.11622 5.3259 7.70885 5.06413C8.30149 4.80236 8.94213 4.66685 9.59001 4.66624H16.59C17.7224 4.6551 18.8202 5.05609 19.6788 5.79448C20.5374 6.53288 21.0982 7.55828 21.2567 8.67958C21.5521 10.9197 22.1001 13.1193 22.89 15.2362C23.2039 16.0714 23.2719 16.979 23.0858 17.8516C22.8997 18.7242 22.4674 19.5252 21.84 20.1596L18.8767 23.1229C22.1983 28.9645 27.0351 33.8013 32.8767 37.1229L35.84 34.1596C36.4744 33.5322 37.2754 33.0999 38.148 32.9138C39.0205 32.7277 39.9282 32.7956 40.7633 33.1096C42.8803 33.8995 45.0799 34.4475 47.32 34.7429C48.4535 34.9028 49.4886 35.4737 50.2286 36.3471C50.9686 37.2204 51.3617 38.3353 51.3333 39.4796Z" stroke="#1E1E1E" stroke-width="4" stroke-linecap="round" stroke-linejoin="round"/>
</svg>
