<svg width="33" height="32" viewBox="0 0 33 32" fill="none" xmlns="http://www.w3.org/2000/svg">
<path d="M27.3002 13.5998C27.3002 21.9998 16.5002 29.1998 16.5002 29.1998C16.5002 29.1998 5.7002 21.9998 5.7002 13.5998C5.7002 10.7355 6.83805 7.98844 8.86344 5.96305C10.8888 3.93766 13.6359 2.7998 16.5002 2.7998C19.3645 2.7998 22.1116 3.93766 24.1369 5.96305C26.1623 7.98844 27.3002 10.7355 27.3002 13.5998Z" stroke="#1E1E1E" stroke-width="3" stroke-linecap="round" stroke-linejoin="round"/>
<path d="M16.5004 16.9998C18.4886 16.9998 20.1004 15.388 20.1004 13.3998C20.1004 11.4116 18.4886 9.7998 16.5004 9.7998C14.5122 9.7998 12.9004 11.4116 12.9004 13.3998C12.9004 15.388 14.5122 16.9998 16.5004 16.9998Z" stroke="#1E1E1E" stroke-width="3" stroke-linecap="round" stroke-linejoin="round"/>
</svg>
