<svg width="32" height="32" viewBox="0 0 32 32" fill="none" xmlns="http://www.w3.org/2000/svg">
<path d="M21.3337 17.1993V22.7993C21.3337 27.466 19.467 29.3327 14.8003 29.3327H9.20033C4.53366 29.3327 2.66699 27.466 2.66699 22.7993V17.1993C2.66699 12.5327 4.53366 10.666 9.20033 10.666H14.8003C19.467 10.666 21.3337 12.5327 21.3337 17.1993Z" stroke="#1E1E1E" stroke-width="2" stroke-linecap="round" stroke-linejoin="round"/>
<path d="M29.3337 9.19935V14.7993C29.3337 19.466 27.467 21.3327 22.8003 21.3327H21.3337V17.1993C21.3337 12.5327 19.467 10.666 14.8003 10.666H10.667V9.19935C10.667 4.53268 12.5337 2.66602 17.2003 2.66602H22.8003C27.467 2.66602 29.3337 4.53268 29.3337 9.19935Z" stroke="#1E1E1E" stroke-width="2" stroke-linecap="round" stroke-linejoin="round"/>
</svg>
