<svg width="33" height="32" viewBox="0 0 33 32" fill="none" xmlns="http://www.w3.org/2000/svg">
<path d="M6.02354 10.8596C6.08075 10.0756 6.7335 9.46875 7.51956 9.46875H25.4089C26.195 9.46875 26.8477 10.0756 26.9049 10.8596L28.0316 26.298C28.095 27.1671 27.407 27.9071 26.5356 27.9071H6.39293C5.52149 27.9071 4.83348 27.1671 4.8969 26.298L6.02354 10.8596Z" stroke="#1E1E1E" stroke-width="3"/>
<path fill-rule="evenodd" clip-rule="evenodd" d="M13.4883 6.70743C13.4883 6.70743 13.4883 6.70743 13.4883 6.70743C13.4883 6.70743 13.4883 6.70743 13.4883 6.70742L13.4883 6.70051L13.4883 6.6926C13.4883 5.16355 14.7698 3.83301 16.464 3.83301C18.1583 3.83301 19.4397 5.16352 19.4398 6.69256L19.4398 7.91347V14.3752C19.4398 15.0656 19.9994 15.6252 20.6898 15.6252C21.3801 15.6252 21.9398 15.0656 21.9398 14.3752V9.19252V6.69253C21.9398 6.69252 21.9398 6.69252 21.9398 6.69252C21.9398 6.69252 21.9398 6.69251 21.9398 6.69251C21.9397 3.73253 19.4882 1.33301 16.464 1.33301C13.4399 1.33301 10.9883 3.73258 10.9883 6.6926L10.9883 6.70743V14.3752C10.9883 15.0656 11.5479 15.6252 12.2383 15.6252C12.9287 15.6252 13.4883 15.0656 13.4883 14.3752V6.70743Z" fill="#1E1E1E"/>
</svg>
