<svg width="56" height="56" viewBox="0 0 56 56" fill="none" xmlns="http://www.w3.org/2000/svg">
<path d="M24.9186 28.6568V17.1233C24.9186 16.0387 23.5054 15.5862 22.8533 16.4618L12.2221 30.7372C11.6704 31.4779 12.2097 32.5198 13.1448 32.5198H20.8745C21.5056 32.5198 22.0171 33.0218 22.0171 33.6408L22.0172 44.8767C22.0172 45.9748 23.4594 46.4183 24.0981 45.5166L34.7936 30.4178C35.3203 29.6744 34.7781 28.6568 33.8554 28.6568H30.2784" stroke="black" stroke-width="3" stroke-linecap="round" stroke-linejoin="round"/>
<path d="M38 10L40.1185 14.8815L45 17L40.1185 19.1185L38 24L35.8815 19.1185L31 17L35.8815 14.8815L38 10Z" stroke="#6FADAA" stroke-width="3" stroke-linejoin="round"/>
</svg>
