<svg width="32" height="32" viewBox="0 0 32 32" fill="none" xmlns="http://www.w3.org/2000/svg">
<g clip-path="url(#clip0_1_8318)">
<path opacity="0.08" d="M28 0H4C1.79086 0 0 1.79086 0 4V28C0 30.2091 1.79086 32 4 32H28C30.2091 32 32 30.2091 32 28V4C32 1.79086 30.2091 0 28 0Z" fill="#6F99C6"/>
<path fill-rule="evenodd" clip-rule="evenodd" d="M18.4004 16.0002C18.4004 15.5583 18.7585 15.2002 19.2004 15.2002C20.5222 15.2002 21.6004 16.2783 21.6004 17.6002C21.6004 18.922 20.5222 20.0002 19.2004 20.0002C18.7585 20.0002 18.4004 19.642 18.4004 19.2002C18.4004 18.7583 18.7585 18.4002 19.2004 18.4002C19.6385 18.4002 20.0004 18.0383 20.0004 17.6002C20.0004 17.162 19.6385 16.8002 19.2004 16.8002C18.7585 16.8002 18.4004 16.442 18.4004 16.0002Z" fill="#6F99C6"/>
<path fill-rule="evenodd" clip-rule="evenodd" d="M23.4669 20.8003V11.2003C23.4669 10.6112 22.9894 10.1336 22.4003 10.1336H9.60026C9.01115 10.1336 8.53359 10.6112 8.53359 11.2003V20.8003C8.53359 21.3894 9.01115 21.867 9.60026 21.867H22.4003C22.9894 21.867 23.4669 21.3894 23.4669 20.8003ZM9.60026 8.53369C8.1275 8.53369 6.93359 9.72759 6.93359 11.2003V20.8003C6.93359 22.2731 8.1275 23.467 9.60026 23.467H22.4003C23.873 23.467 25.0669 22.2731 25.0669 20.8003V11.2003C25.0669 9.72759 23.873 8.53369 22.4003 8.53369H9.60026Z" fill="black"/>
<path fill-rule="evenodd" clip-rule="evenodd" d="M7.4668 12.5334C7.4668 12.0916 7.82497 11.7334 8.2668 11.7334H21.0668C21.5087 11.7334 21.8668 12.0916 21.8668 12.5334C21.8668 12.9753 21.5087 13.3334 21.0668 13.3334H8.2668C7.82497 13.3334 7.4668 12.9753 7.4668 12.5334Z" fill="black"/>
</g>
<defs>
<clipPath id="clip0_1_8318">
<rect width="32" height="32" fill="white"/>
</clipPath>
</defs>
</svg>
