<svg width="57" height="17" viewBox="0 0 57 17" fill="none" xmlns="http://www.w3.org/2000/svg">
<g clip-path="url(#clip0_2056_4405)">
<path fill-rule="evenodd" clip-rule="evenodd" d="M8.81072 12.2566H6.37194C2.56787 12.2566 5.33154 4.00768 8.53419 4.00768H12.3873C13.0049 4.00768 14.0942 4.12367 14.6308 2.56367L15.4599 0.140381H10.1762C7.31492 0.140381 5.08764 1.16932 3.47822 2.89568C0.698117 5.85003 -0.244625 10.4642 0.421821 12.6715C1.05587 14.7131 2.77915 16.0573 5.47779 16.0905L7.57501 16.1072H10.16L10.7941 14.1653C11.2655 12.7877 10.2086 12.2566 8.81072 12.2566ZM38.4963 8.83756L39.293 6.1985H30.7905C29.3761 6.1985 28.7421 6.59685 28.4982 7.42673L27.7015 10.0658H36.2042C37.6186 10.0658 38.2526 9.66744 38.4963 8.83756ZM26.4336 13.4849L25.6369 16.1237H34.1394C35.5375 16.1237 36.1878 15.7256 36.4317 14.8957L37.2284 12.2566H28.7257C27.3277 12.2566 26.6937 12.655 26.4336 13.4849ZM40.4799 2.79591L41.2764 0.157087H32.7739C31.3595 0.157087 30.7255 0.555203 30.4816 1.38508L29.6848 4.02414H38.1876C39.5857 4.02414 40.2195 3.62579 40.4799 2.79591ZM27.6364 3.32721C27.2789 0.870736 25.9946 0.157087 22.8732 0.157087H17.1832L13.8667 10.0658H15.9639C17.2156 10.0658 17.8496 10.0823 18.5163 8.25662L19.898 4.00768H22.0114C23.8162 4.00768 23.4096 6.31473 22.4992 8.5552C21.6863 10.5305 20.272 12.2731 18.5649 12.2731H15.0371C13.6228 12.2731 12.9725 12.6715 12.7124 13.5013L11.8345 16.1404H14.4193L16.9555 16.1237C19.1989 16.1072 21.0361 15.9413 23.1821 13.966C25.458 11.8583 28.0918 6.44744 27.6364 3.32721ZM56.2168 0.140381H51.2909L46.6575 5.16932C46.1211 5.75026 45.5682 6.3312 45.0318 7.01167H44.983L47.2915 0.140381H43.2759L37.8625 16.1237H41.8778L43.6011 11.0948L45.3894 9.5512L46.8039 14.099C47.2427 15.5098 47.6981 16.1237 48.6735 16.1237H51.7461L48.5922 7.19426L56.2168 0.140381Z" fill="#00B33C"/>
</g>
<defs>
<clipPath id="clip0_2056_4405">
<rect width="56" height="16" fill="white" transform="translate(0.216797 0.140381)"/>
</clipPath>
</defs>
</svg>
