<svg width="77" height="12" viewBox="0 0 77 12" fill="none" xmlns="http://www.w3.org/2000/svg">
<g clip-path="url(#clip0_2056_4186)">
<path fill-rule="evenodd" clip-rule="evenodd" d="M14.3223 0.640381H12.541V9.88702H14.3223V0.640381ZM10.4655 1.22534H8.68424V10.472H10.4655V1.22534ZM0.970703 2.39374H2.75199V11.6404H0.970703V2.39374ZM6.60877 1.80954H4.82748V11.0562H6.60877V1.80954ZM61.5445 5.61569L58.6747 2.37887H56.9964V9.87222H58.7478V5.09165L61.3685 7.92413H61.692L64.2682 5.09165V9.87222H66.0196V2.37887H64.342L61.5445 5.61569ZM70.0238 7.24934L74.3661 2.37887H75.9707V9.87222H74.2186V5.00175L69.8764 9.87222H68.2718V2.37887H70.0238V7.24934ZM47.5607 5.12145C47.5607 6.31461 48.1999 7.25356 49.191 7.64731L47.3402 9.87222H49.4894L51.1726 7.8491H52.9922V9.87222H54.7435V2.37887H50.2837C48.6228 2.37887 47.5607 3.53309 47.5607 5.12145ZM52.9922 4.02739V6.24518H50.6078C49.8128 6.24518 49.3858 5.79555 49.3858 5.13632C49.3858 4.46216 49.8274 4.02739 50.6078 4.02739H52.9922ZM37.7278 8.11748C38.7725 8.11748 39.3171 6.45409 39.4208 3.87581L39.4792 2.37887H45.7196V9.87077H43.9675V4.08617H41.2C41.0101 8.17695 39.8457 10.0506 37.741 9.931L37.4628 9.91537V8.11748H37.7278ZM32.8257 2.27404C30.456 2.27404 28.7484 3.93743 28.7484 6.12548C28.7484 8.39146 30.6034 9.99186 32.8257 9.99186C35.137 9.99186 36.9294 8.29873 36.9294 6.12548C36.9328 3.96716 35.137 2.27404 32.8257 2.27404ZM32.8257 8.19389C31.486 8.19389 30.5735 7.30951 30.5735 6.12548C30.5735 4.91178 31.486 4.05706 32.8257 4.05706C34.1507 4.05706 35.1077 4.95639 35.1077 6.12548C35.1077 7.29464 34.1507 8.19535 32.8257 8.19535V8.19389ZM20.7115 2.39374H26.8934L26.892 8.13373H28.1579V11.6404H26.3773V9.87008H20.2385V11.6404H18.4725V8.1486L18.9594 8.13373C20.0048 8.104 20.564 6.05045 20.6524 3.89282L20.7115 2.39374ZM21.4028 8.13373H25.1421V4.10242H22.4336C22.3766 5.75095 22.0358 7.15937 21.4028 8.13373Z" fill="black"/>
</g>
<defs>
<clipPath id="clip0_2056_4186">
<rect width="76" height="11" fill="white" transform="translate(0.216797 0.640381)"/>
</clipPath>
</defs>
</svg>
