<svg width="68" height="17" viewBox="0 0 68 17" fill="none" xmlns="http://www.w3.org/2000/svg">
<g clip-path="url(#clip0_2056_4402)">
<path d="M14.5976 14.1844C15.5223 14.0886 16.4985 14.0583 17.404 14.2087C17.4016 14.7715 17.3166 15.3452 17.1093 15.8691C17.0015 16.1978 16.5799 16.1468 16.3679 15.9588C15.7031 15.4519 15.1485 14.8126 14.5976 14.1844ZM11.6953 11.4093C13.8334 11.2189 15.9978 11.3535 18.1466 11.3267C18.0939 11.9938 17.9718 12.6742 17.6747 13.2771C16.429 13.351 15.1629 13.3293 13.91 13.3256C13.4225 13.362 13.1362 12.9241 12.8452 12.6063C12.4918 12.1771 12.0067 11.8774 11.6953 11.4093ZM8.84454 8.59154C12.1636 8.44733 15.4959 8.55152 18.8198 8.53575C18.7048 9.19557 18.7216 9.96092 18.3059 10.5093C16.0457 10.576 13.7771 10.479 11.5144 10.5445C10.2591 10.6948 9.60274 9.36793 8.84454 8.59154ZM55.2089 7.74251C55.1981 7.04508 55.0819 5.71452 56.0665 5.73756C59.3531 5.73635 62.64 5.73756 65.9267 5.73756C65.8117 6.41073 65.6464 7.07298 65.4859 7.73523C62.0603 7.74627 58.6345 7.73402 55.2089 7.74251ZM5.9279 5.77771C9.38354 5.67825 12.8476 5.76801 16.3056 5.73768C17.3872 5.77043 18.4772 5.65642 19.5528 5.80925C19.4007 6.42541 19.3097 7.06704 19.0546 7.65045C18.682 7.81298 18.2592 7.68077 17.8663 7.70139C14.5245 7.69896 11.1814 7.67592 7.83958 7.7402C7.15205 7.13981 6.51242 6.47623 5.9279 5.77771ZM56.1432 2.99881C59.6241 2.88237 63.1143 2.97819 66.5987 2.94787C66.4466 3.61982 66.2897 4.28935 66.1244 4.95766C62.6951 4.94796 59.2634 4.98192 55.8341 4.93825C55.8593 4.28813 55.8509 3.59313 56.1432 2.99881ZM3.03282 2.96363C8.72356 2.94665 14.4191 2.91148 20.1098 2.98304C19.9876 3.65621 20.1553 4.99284 19.1743 4.93583C14.7066 4.97343 10.2364 4.96615 5.76859 4.94068C5.3817 4.93704 4.8942 5.05348 4.61272 4.70538C4.11324 4.10013 3.53709 3.56524 3.03282 2.96363ZM56.8391 0.196979C60.2923 0.150888 63.7588 0.204256 67.2168 0.177572C67.1078 0.843461 66.9413 1.49844 66.794 2.15826C63.3036 2.11702 59.8012 2.265 56.3192 2.08306C56.4773 1.46811 56.4366 0.677292 56.8391 0.196979ZM0.216797 0.250468C0.980992 0.112196 1.75837 0.166777 2.52975 0.182545C8.07914 0.178907 13.6297 0.186184 19.1803 0.178907C19.7122 0.193462 20.2691 0.0661057 20.783 0.254107C20.8189 0.898163 20.668 1.5774 20.3398 2.13291C14.5269 2.20932 8.70679 2.12927 2.89028 2.17294C2.53334 2.16323 2.11531 2.21175 1.84221 1.9255C1.27206 1.39789 0.665971 0.894403 0.216797 0.250468Z" fill="#F8981D"/>
<path d="M47.7252 0.165409C49.2681 0.142363 50.8205 0.118105 52.3643 0.177538C52.781 1.10784 53.4926 1.87319 53.8783 2.81441C53.8232 3.54337 53.5022 4.23351 53.3754 4.95641C52.0373 4.95883 50.6994 4.96975 49.3627 4.95277C49.3914 4.75021 49.4238 4.54766 49.4598 4.34631C49.1914 4.35359 48.9243 4.36087 48.6572 4.37057C48.5327 4.86301 48.4141 5.35788 48.3004 5.85396C49.1353 5.98859 50.3678 5.42823 50.8254 6.41069C51.2757 7.26215 51.9572 7.98383 52.3274 8.8729C52.1668 10.2714 51.671 11.6262 51.4265 13.0186C51.3367 13.4348 51.2421 13.8945 50.8732 14.1551C50.0815 14.7543 49.4789 15.5851 48.6189 16.0934C46.9803 16.1478 45.3333 16.1188 43.6924 16.1017C43.2815 15.4201 42.7173 14.8379 42.3939 14.103C44.4398 14.0701 46.4881 14.0993 48.5352 14.0896C49.0562 14.1151 49.3952 13.6457 49.7808 13.3667C47.2978 13.2746 44.8112 13.3764 42.327 13.3158C42.4898 12.6512 42.6336 11.9828 42.8217 11.3242C44.1932 11.2878 45.5658 11.329 46.9373 11.2975C46.8869 11.5836 46.8475 11.8736 46.815 12.1635C47.0606 12.1599 47.3073 12.1575 47.5541 12.1575C47.6199 11.8785 47.6846 11.5983 47.7469 11.3181C48.6524 11.2853 49.5604 11.3133 50.4671 11.3156C50.5222 11.0646 50.5737 10.8123 50.624 10.5588C48.8945 10.5055 47.1577 10.6013 45.434 10.5211C44.7118 9.98744 44.2087 9.19432 43.6109 8.52467C46.0197 8.49313 48.4284 8.53437 50.8372 8.51011C50.6324 8.22265 50.5378 7.68776 50.091 7.75326C47.9398 7.7387 45.7873 7.75447 43.6361 7.75083C43.7894 7.07524 43.999 6.4142 44.1476 5.7374C45.0746 5.73255 46.0017 5.75438 46.9264 5.69616C46.9732 5.44873 47.0224 5.20251 47.0775 4.9575C46.1695 4.95992 45.2628 4.94901 44.3549 4.9575C44.5249 4.28676 44.689 3.61359 44.8651 2.94407C47.3781 2.92587 49.8911 2.94528 52.4041 2.92466C52.2052 2.63477 52.0998 2.09745 51.6518 2.16659C49.5485 2.16174 47.4428 2.20176 45.3395 2.15082C46.0927 1.44382 46.8629 0.730626 47.7252 0.165409ZM33.4548 8.6775C33.1853 9.10202 33.9171 8.78072 33.4548 8.6775V8.6775ZM38.8736 7.79098C38.8064 8.03235 38.7383 8.2736 38.6712 8.51509C39.4498 8.5163 40.2296 8.51509 41.0094 8.51388C41.0572 8.26389 41.1004 8.01173 41.1436 7.76066C40.3864 7.75095 39.6282 7.70972 38.8736 7.79098ZM33.6596 7.76066C33.6177 8.01173 33.5734 8.26159 33.5314 8.51266C34.7807 8.53074 36.03 8.49556 37.2782 8.53935C37.4015 8.27978 37.5237 8.02022 37.6459 7.75944C36.3175 7.73519 34.988 7.74719 33.6596 7.76066ZM31.6545 0.164075C33.1541 0.143455 34.655 0.143455 36.1558 0.153158C36.4181 1.99193 36.338 3.87316 36.5487 5.72527C38.2568 5.73134 39.966 5.76408 41.6729 5.71072C41.728 5.45964 41.7843 5.20857 41.843 4.9575C40.1935 4.95507 38.543 4.96599 36.8937 4.96356C37.2195 4.30374 37.5201 3.63057 37.7993 2.9477C39.33 2.90525 40.8632 2.98167 42.3929 2.90283C42.4336 2.65661 42.4743 2.40917 42.5186 2.16295C41.0813 2.17265 39.6427 2.1957 38.2054 2.14476C38.403 1.45582 38.7599 0.82875 38.9947 0.154371C40.7806 0.150733 42.5655 0.142242 44.3513 0.153158C43.6746 3.35888 42.7869 6.5173 42.0455 9.70847C41.4658 11.8275 41.0694 13.9914 40.4705 16.1054C39.1194 16.1369 37.7671 16.1151 36.4148 16.1079C36.6124 15.4469 36.7909 14.7798 36.9454 14.1066C37.833 14.0507 38.7326 14.1685 39.6118 14.0349C39.6991 13.8143 39.7568 13.5837 39.8214 13.3569C38.9351 13.3157 38.0474 13.3448 37.1598 13.3254C37.3479 12.6595 37.4976 11.9839 37.6617 11.3119C38.5205 11.3106 39.3793 11.3132 40.2382 11.3071C40.3028 11.0548 40.3723 10.8037 40.4406 10.5514C39.59 10.554 38.7385 10.5381 37.888 10.5466C37.9131 10.3792 37.9371 10.2118 37.9586 10.0457C36.9848 12.0069 36.2531 14.0931 35.2349 16.0265C34.5654 16.2498 33.7844 16.0679 33.0729 16.1102C33.2191 15.4552 33.225 14.7833 33.2274 14.115C33.7664 14.0944 34.3055 14.0944 34.8445 14.0628C34.9117 13.8251 34.9786 13.5886 35.0385 13.3496C34.4721 13.3374 33.9066 13.3351 33.34 13.3181C33.3161 12.651 33.3173 11.9826 33.3376 11.3155C34.2384 11.2851 35.1392 11.318 36.0411 11.3045C36.1345 11.0547 36.2291 10.806 36.3237 10.5562C35.3679 10.5356 34.4121 10.578 33.4574 10.5307C33.4598 10.0831 33.4454 9.63436 33.4083 9.18801C32.7543 11.4696 32.2968 13.8068 31.717 16.1113C30.4066 16.1295 29.0962 16.1139 27.7858 16.121C27.8853 15.4394 28.0817 14.7771 28.2159 14.1027C29.0855 14.0785 29.9539 14.0942 30.8235 14.0953C30.8726 13.8492 30.9157 13.6029 30.9564 13.3555C30.1132 13.3276 29.2687 13.3348 28.4255 13.3154C28.5968 12.6459 28.774 11.9788 28.9393 11.3081C29.8017 11.3093 30.6642 11.3055 31.5266 11.3032C31.5769 11.057 31.6308 10.812 31.6823 10.5658C30.8259 10.5488 29.9682 10.5609 29.1118 10.5342C29.2543 9.88289 29.3717 9.21943 29.6053 8.59599C30.4593 8.38979 31.3517 8.61661 32.2189 8.48076C32.2596 8.23818 32.2991 7.9956 32.3423 7.75302C31.5038 7.7421 30.6665 7.75665 29.8293 7.73482C29.9191 7.05438 30.1275 6.39819 30.2521 5.72503C31.917 5.73837 33.5808 5.74322 35.2457 5.73231C35.2457 5.47396 35.2481 5.21682 35.2529 4.95847C33.6515 4.94149 32.0488 4.98515 30.4474 4.93906C30.6126 4.2756 30.7684 3.61092 30.9456 2.9511C32.3471 2.92563 33.7473 2.93655 35.1486 2.93291C35.1451 2.6782 35.1426 2.42348 35.1403 2.16999C33.8096 2.16756 32.4776 2.18818 31.1457 2.15179C31.27 1.47899 31.4437 0.815408 31.6545 0.164075ZM22.7453 0.184815C25.3074 0.118105 27.8742 0.144789 30.4375 0.167835C30.0482 1.67912 29.7428 3.21103 29.3284 4.71382C28.1881 4.72231 27.0478 4.74536 25.9075 4.71989C25.8404 5.05587 25.7637 5.39184 25.7062 5.73024C26.7291 5.73873 27.7509 5.7169 28.7738 5.73024C28.4791 7.35191 28.0407 8.94567 27.6562 10.5467C26.5974 10.5493 25.5397 10.5443 24.4809 10.5613C24.4066 10.9737 24.3108 11.38 24.2234 11.7887C25.3385 11.8154 26.456 11.7548 27.5712 11.8057C27.2861 13.226 27.0238 14.6586 26.619 16.0485C24.07 16.2133 21.484 16.0837 18.9219 16.1066C19.062 15.4346 19.2405 14.7712 19.3639 14.0944C21.4972 14.0883 23.6304 14.0786 25.7637 14.1004C25.8212 13.8433 25.8811 13.5886 25.9386 13.3327C23.8149 13.3363 21.69 13.3291 19.5651 13.334C19.7041 12.6535 19.8969 11.9864 20.0658 11.3133C21.0372 11.2951 22.0086 11.3242 22.9812 11.301C23.0315 11.0452 23.089 10.7892 23.1477 10.5346C22.1859 10.5613 21.2229 10.5624 20.261 10.5381C20.4132 9.86372 20.5761 9.19068 20.7725 8.52843C22.7884 8.48234 24.8055 8.55997 26.819 8.48962C26.8609 8.24825 26.9016 8.00567 26.9471 7.7643C24.9576 7.71821 22.9669 7.77643 20.9785 7.73276C21.0588 7.05596 21.2576 6.40098 21.4001 5.73631C22.3931 5.71569 23.3861 5.75814 24.3791 5.72054C24.4042 5.47189 24.4342 5.22446 24.4629 4.97703C23.5083 4.94792 22.5548 4.9649 21.6002 4.95277C21.7667 4.28203 21.9356 3.61129 22.0925 2.93934C24.2246 2.9175 26.3566 2.9551 28.4887 2.92599C28.5366 2.67492 28.5845 2.42385 28.636 2.17399C26.5207 2.16671 24.4042 2.20189 22.2901 2.14609C22.4051 1.48384 22.5872 0.837362 22.7453 0.184815Z" fill="#104A9F"/>
</g>
<defs>
<clipPath id="clip0_2056_4402">
<rect width="67" height="16" fill="white" transform="translate(0.216797 0.140381)"/>
</clipPath>
</defs>
</svg>
