<svg width="73" height="13" viewBox="0 0 73 13" fill="none" xmlns="http://www.w3.org/2000/svg">
<g clip-path="url(#clip0_2056_4188)">
<path d="M9.6668 11.7892C9.6668 7.99409 9.6668 4.21848 9.6668 0.442871C6.49723 0.442871 3.35701 0.442871 0.216797 0.442871C0.216797 4.23799 0.216797 8.00385 0.216797 11.7795C0.735275 11.7795 1.23419 11.7795 1.77223 11.7795C1.77223 8.44287 1.77223 5.14531 1.77223 1.83799C3.90484 1.83799 6.0081 1.83799 8.15049 1.83799C8.15049 5.16482 8.15049 8.46238 8.15049 11.7892C8.66897 11.7892 9.14832 11.7892 9.6668 11.7892Z" fill="#FF0001"/>
<path d="M35.7571 10.3648L31.6679 1.20385C31.4625 0.735554 30.9929 0.442871 30.4842 0.442871C29.9755 0.442871 29.5158 0.74531 29.3005 1.20385L25.2114 10.3648H23.8125V11.7795H37.1462V10.3648H35.7571ZM30.4842 2.15019L34.0745 10.3746H26.894L30.4842 2.15019Z" fill="#FF0001"/>
<path d="M60.7032 11.7892L56.2228 1.2136C56.0271 0.74531 55.5673 0.442871 55.0586 0.442871C54.5499 0.442871 54.0902 0.74531 53.8945 1.2136L49.4141 11.7892H51.0967L55.0488 2.23799L59.001 11.7892H60.7032Z" fill="#FF0001"/>
<path d="M70.6024 0.442871H70.573L63.7839 9.62336V0.442871H62.2578V11.6917V11.7892H63.7839L70.5926 2.5697V11.7892H72.1187V0.501408V0.442871H70.6024Z" fill="#FF0001"/>
<path d="M43.2311 10.5892C42.1354 10.5892 41.0789 10.1892 40.267 9.46721C39.4452 8.74526 38.917 7.75014 38.78 6.66721H49.1985C49.2181 6.48184 49.2278 6.29648 49.2278 6.11111C49.2278 5.81843 49.2083 5.52575 49.1594 5.23306C48.9441 3.81843 48.23 2.52087 47.1441 1.58428C46.0583 0.657454 44.6691 0.140381 43.2311 0.140381C41.6463 0.140381 40.1202 0.764771 38.9952 1.88672C37.8702 3.00867 37.2441 4.52087 37.2441 6.11111C37.2441 7.70136 37.8702 9.21355 38.9952 10.3355C40.1202 11.4575 41.6365 12.0818 43.2311 12.0818C44.4148 12.0818 45.5691 11.7306 46.5474 11.077C47.5257 10.4233 48.2985 9.49648 48.7485 8.4038H47.0757C46.6746 9.06721 46.117 9.62331 45.442 10.0038C44.767 10.3843 44.0039 10.5892 43.2311 10.5892ZM43.2311 1.64282C44.2681 1.64282 45.2757 2.0038 46.0778 2.65745C46.88 3.31111 47.4278 4.22819 47.6333 5.24282H38.8387C39.0441 4.22819 39.592 3.32087 40.3941 2.65745C41.1865 2.0038 42.1941 1.64282 43.2311 1.64282Z" fill="#FF0001"/>
<path d="M17.7467 0.140381C14.4402 0.140381 11.7598 2.81355 11.7598 6.11111C11.7598 9.40867 14.4402 12.0818 17.7467 12.0818C21.0532 12.0818 23.7337 9.40867 23.7337 6.11111C23.7337 2.81355 21.0532 0.140381 17.7467 0.140381ZM17.7467 10.5892C15.2717 10.5892 13.2565 8.58916 13.2565 6.11111C13.2565 3.63306 15.2619 1.63306 17.7467 1.63306C20.2217 1.63306 22.2369 3.63306 22.2369 6.11111C22.2369 8.58916 20.2315 10.5892 17.7467 10.5892Z" fill="#FF0001"/>
<path d="M17.748 0.940481C17.748 1.31121 18.022 1.62341 18.3839 1.68194C20.3502 1.96487 21.9057 3.51609 22.1894 5.47707C22.2383 5.8478 22.5611 6.11121 22.9328 6.11121C23.3828 6.11121 23.7448 5.71121 23.6763 5.26243C23.3046 2.6478 21.2307 0.569749 18.5991 0.199017C18.1491 0.140481 17.748 0.4917 17.748 0.940481Z" fill="black"/>
</g>
<defs>
<clipPath id="clip0_2056_4188">
<rect width="72" height="12" fill="white" transform="translate(0.216797 0.140381)"/>
</clipPath>
</defs>
</svg>
