<svg width="27" height="17" viewBox="0 0 27 17" fill="none" xmlns="http://www.w3.org/2000/svg">
<g clip-path="url(#clip0_2056_4177)">
<mask id="mask0_2056_4177" style="mask-type:luminance" maskUnits="userSpaceOnUse" x="0" y="0" width="26" height="17">
<path d="M25.9668 0.140381H0.216797V16.1404H25.9668V0.140381Z" fill="white"/>
</mask>
<g mask="url(#mask0_2056_4177)">
<path d="M25.6371 13.0933V12.7849H25.5569L25.4641 12.9966L25.3719 12.7849H25.2914V13.0933H25.3484V12.8609L25.4351 13.0615H25.4942L25.5809 12.8604V13.0933H25.6371ZM25.1283 13.0933V12.8377H25.231V12.7856H24.9688V12.8377H25.0714V13.0933H25.1283Z" fill="#F79410"/>
<path d="M16.525 14.4152H9.58398V1.92163H16.5251L16.525 14.4152Z" fill="#FF5F00"/>
<path d="M10.0215 8.17001C10.0215 5.63569 11.2062 3.3781 13.0512 1.92322C11.6546 0.820321 9.92738 0.221742 8.14896 0.224374C3.76804 0.224374 0.216797 3.7817 0.216797 8.17001C0.216797 12.5583 3.76804 16.1157 8.14896 16.1157C9.92743 16.1183 11.6547 15.5198 13.0513 14.4168C11.2065 12.9622 10.0215 10.7045 10.0215 8.17001Z" fill="#EB001B"/>
<path d="M25.8878 8.17001C25.8878 12.5584 22.3366 16.1157 17.9556 16.1157C16.177 16.1183 14.4495 15.5197 13.0527 14.4168C14.8981 12.9619 16.0829 10.7045 16.0829 8.17001C16.0829 5.63556 14.8981 3.3781 13.0527 1.92322C14.4494 0.820354 16.1769 0.221788 17.9555 0.224374C22.3364 0.224374 25.8878 3.7817 25.8878 8.17001Z" fill="#F79E1B"/>
</g>
</g>
<defs>
<clipPath id="clip0_2056_4177">
<rect width="26" height="16" fill="white" transform="translate(0.216797 0.140381)"/>
</clipPath>
</defs>
</svg>
