<svg width="50" height="15" viewBox="0 0 50 15" fill="none" xmlns="http://www.w3.org/2000/svg">
<g clip-path="url(#clip0_2056_4167)">
<path fill-rule="evenodd" clip-rule="evenodd" d="M5.76793 0.142638C6.2012 0.140046 7.48886 0.0240728 8.03429 1.86489C8.40169 3.10488 8.98694 5.13605 9.79004 7.95839H10.1171C10.9784 4.98288 11.57 2.95171 11.892 1.86489C12.4431 0.00489783 13.8209 0.142675 14.372 0.142675L18.624 0.14268V13.3693H14.2903V5.57461H13.9997L11.5838 13.3693H8.32332L5.9075 5.56884H5.6169V13.3693H1.2832V0.14268L5.76793 0.142638ZM24.847 0.14268V7.94312H25.1928L28.1314 1.52887C28.7018 0.25242 29.9176 0.14268 29.9176 0.14268H34.1113V13.3693H29.6871V5.56884H29.3414L26.4604 11.9831C25.89 13.2538 24.6166 13.3693 24.6166 13.3693H20.4228V0.14268H24.847ZM49.4033 6.42805C48.7862 8.17684 46.8481 9.42928 44.7025 9.42928H40.0628V13.3693H35.8557V6.42805H49.4033Z" fill="#0F754E"/>
<path fill-rule="evenodd" clip-rule="evenodd" d="M44.907 0.142334H35.6367C35.8573 3.08702 38.3932 5.60787 41.0184 5.60787H49.6973C50.1981 3.16048 48.474 0.142334 44.907 0.142334Z" fill="url(#paint0_linear_2056_4167)"/>
</g>
<defs>
<linearGradient id="paint0_linear_2056_4167" x1="49.7824" y1="3.58039" x2="35.6367" y2="3.58039" gradientUnits="userSpaceOnUse">
<stop stop-color="#1F5CD7"/>
<stop offset="1" stop-color="#02AEFF"/>
</linearGradient>
<clipPath id="clip0_2056_4167">
<rect width="49" height="14" fill="white" transform="translate(0.783203 0.140381)"/>
</clipPath>
</defs>
</svg>
