<svg width="72" height="12" viewBox="0 0 72 12" fill="none" xmlns="http://www.w3.org/2000/svg">
<g clip-path="url(#clip0_1_8298)">
<path d="M9.58633 11.6491C9.58633 7.85395 9.58633 4.07834 9.58633 0.302734C6.46078 0.302734 3.36418 0.302734 0.267578 0.302734C0.267578 4.09786 0.267578 7.86371 0.267578 11.6393C0.778855 11.6393 1.27084 11.6393 1.80141 11.6393C1.80141 8.30274 1.80141 5.00517 1.80141 1.69786C3.9044 1.69786 5.97845 1.69786 8.09108 1.69786C8.09108 5.02469 8.09108 8.32225 8.09108 11.6491C8.60236 11.6491 9.07505 11.6491 9.58633 11.6491Z" fill="#FF0001"/>
<path d="M35.3138 10.2247L31.2815 1.06371C31.0789 0.595417 30.6159 0.302734 30.1142 0.302734C29.6126 0.302734 29.1592 0.605173 28.947 1.06371L24.9146 10.2247H23.5352V11.6393H36.6837V10.2247H35.3138ZM30.1142 2.01005L33.6546 10.2344H26.5739L30.1142 2.01005Z" fill="#FF0001"/>
<path d="M59.9136 11.6491L55.4954 1.07347C55.3024 0.605173 54.849 0.302734 54.3474 0.302734C53.8458 0.302734 53.3924 0.605173 53.1995 1.07347L48.7812 11.6491H50.4405L54.3378 2.09786L58.2351 11.6491H59.9136Z" fill="#FF0001"/>
<path d="M69.6759 0.302734H69.647L62.9522 9.48322V0.302734H61.4473V11.5515V11.6491H62.9522L69.6663 2.42956V11.6491H71.1712V0.361271V0.302734H69.6759Z" fill="#FF0001"/>
<path d="M42.6851 10.4488C41.6046 10.4488 40.5628 10.0488 39.7621 9.32683C38.9518 8.60488 38.4308 7.60976 38.2958 6.52683H48.5696C48.5889 6.34146 48.5985 6.1561 48.5985 5.97073C48.5985 5.67805 48.5792 5.38537 48.531 5.09268C48.3187 3.67805 47.6145 2.38049 46.5438 1.4439C45.473 0.517073 44.1031 0 42.6851 0C41.1223 0 39.6174 0.62439 38.508 1.74634C37.3986 2.86829 36.7812 4.38049 36.7812 5.97073C36.7812 7.56098 37.3986 9.07317 38.508 10.1951C39.6174 11.3171 41.1126 11.9415 42.6851 11.9415C43.8523 11.9415 44.9906 11.5902 45.9553 10.9366C46.92 10.2829 47.6821 9.3561 48.1258 8.26341H46.4762C46.0807 8.92683 45.5308 9.48293 44.8652 9.86341C44.1996 10.2439 43.4471 10.4488 42.6851 10.4488ZM42.6851 1.50244C43.7076 1.50244 44.7012 1.86341 45.4923 2.51707C46.2833 3.17073 46.8235 4.0878 47.0261 5.10244H38.3537C38.5562 4.0878 39.0965 3.18049 39.8875 2.51707C40.6689 1.86341 41.6625 1.50244 42.6851 1.50244Z" fill="#FF0001"/>
<path d="M17.5542 0C14.2936 0 11.6504 2.67317 11.6504 5.97073C11.6504 9.26829 14.2936 11.9415 17.5542 11.9415C20.8148 11.9415 23.458 9.26829 23.458 5.97073C23.458 2.67317 20.8148 0 17.5542 0ZM17.5542 10.4488C15.1136 10.4488 13.1263 8.44878 13.1263 5.97073C13.1263 3.49268 15.1039 1.49268 17.5542 1.49268C19.9948 1.49268 21.982 3.49268 21.982 5.97073C21.982 8.44878 20.0045 10.4488 17.5542 10.4488Z" fill="#FF0001"/>
<path d="M17.5547 0.800588C17.5547 1.17132 17.8248 1.48352 18.1817 1.54205C20.1207 1.82498 21.6546 3.3762 21.9343 5.33717C21.9825 5.70791 22.3009 5.97132 22.6675 5.97132C23.1112 5.97132 23.4681 5.57132 23.4006 5.12254C23.034 2.50791 20.9889 0.429857 18.394 0.0591248C17.9502 0.000588253 17.5547 0.351808 17.5547 0.800588Z" fill="black"/>
</g>
<defs>
<clipPath id="clip0_1_8298">
<rect width="71" height="12" fill="white" transform="translate(0.267578)"/>
</clipPath>
</defs>
</svg>
