<svg width="51" height="17" viewBox="0 0 51 17" fill="none" xmlns="http://www.w3.org/2000/svg">
<g clip-path="url(#clip0_2056_4170)">
<path d="M22.2037 15.9086H18.1992L20.7039 0.421631H24.7081L22.2037 15.9086Z" fill="#00579F"/>
<path d="M36.7212 0.799723C35.9314 0.486366 34.6786 0.140381 33.1296 0.140381C29.175 0.140381 26.3903 2.24914 26.3732 5.26402C26.3404 7.48839 28.367 8.72387 29.8828 9.46554C31.432 10.2234 31.9587 10.7181 31.9587 11.3936C31.9429 12.4312 30.7068 12.9094 29.5539 12.9094C27.9551 12.9094 27.0985 12.6628 25.7966 12.0856L25.2693 11.8382L24.709 15.3147C25.6482 15.7425 27.3785 16.1222 29.175 16.1389C33.3768 16.1389 36.1122 14.0628 36.1447 10.8499C36.1606 9.08693 35.0905 7.73606 32.7833 6.63219C31.3828 5.92358 30.525 5.44577 30.525 4.72074C30.5415 4.06161 31.2505 3.38651 32.8315 3.38651C34.1333 3.35344 35.0898 3.66636 35.8144 3.9795L36.1766 4.14395L36.7212 0.799723Z" fill="#00579F"/>
<path d="M42.0432 10.4221C42.373 9.53241 43.6419 6.08899 43.6419 6.08899C43.6253 6.12206 43.9711 5.18286 44.1688 4.60629L44.4487 5.94074C44.4487 5.94074 45.207 9.64782 45.3716 10.4221C44.7458 10.4221 42.8341 10.4221 42.0432 10.4221ZM46.9862 0.421631H43.8887C42.9336 0.421631 42.2079 0.701484 41.7957 1.70659L35.8477 15.9084H40.0494C40.0494 15.9084 40.7411 13.9969 40.8898 13.5853C41.3508 13.5853 45.4382 13.5853 46.0312 13.5853C46.1462 14.129 46.509 15.9084 46.509 15.9084H50.2167L46.9862 0.421631Z" fill="#00579F"/>
<path d="M14.8554 0.421631L10.9337 10.9823L10.5052 8.84044C9.78013 6.36906 7.50626 3.68396 4.96875 2.34885L8.56086 15.8922H12.7954L19.0897 0.421631H14.8554Z" fill="#00579F"/>
<path d="M7.29187 0.421631H0.849115L0.783203 0.73455C5.80896 2.01973 9.13742 5.11761 10.5049 8.8411L9.10435 1.72345C8.87377 0.734331 8.16516 0.454259 7.29187 0.421631Z" fill="#FAA61A"/>
</g>
<defs>
<clipPath id="clip0_2056_4170">
<rect width="49.4333" height="16" fill="white" transform="translate(0.783203 0.140381)"/>
</clipPath>
</defs>
</svg>
