<svg width="264" height="108" viewBox="0 0 264 108" fill="none" xmlns="http://www.w3.org/2000/svg">
<path fill-rule="evenodd" clip-rule="evenodd" d="M77.539 19.2437H26.3503C22.2704 19.2437 19.6735 20.363 18.1904 24.8479L1.50131 83.1518C-0.724288 90.9985 3.72691 93.9897 9.28994 93.9897H23.0129L31.544 82.7774H16.3399C14.4836 82.7774 13.743 82.0306 14.4836 80.1606L28.5797 30.456C28.951 28.9623 29.6916 28.9623 30.8053 28.9623H70.1217L77.539 19.2437ZM235.545 81.6562C235.174 82.7774 234.433 83.5242 233.319 83.5242H230.351C229.239 83.5242 228.868 82.7774 228.868 81.6562L243.705 31.5772H231.465L216.257 83.8986C214.403 90.626 218.111 93.9897 223.305 93.9897H234.433C239.625 93.9897 244.447 92.1216 246.302 86.1411L262.993 27.8392C264.847 22.9799 262.25 19.2418 256.687 19.2418H195.857L192.891 29.7072H247.785C249.639 29.7072 250.382 30.4541 249.639 32.3241L235.545 81.6562ZM213.291 0.929688H201.051L195.857 17.7481H208.097L213.291 0.929688ZM192.149 31.2028H204.388L202.163 39.0495H212.177C217.742 39.0495 219.596 42.7876 218.111 47.6469L211.437 70.4439H200.309L205.5 52.5042C205.872 50.6362 205.131 49.515 203.646 49.515H199.197L185.843 93.9897H173.603L192.149 31.2028ZM161.363 61.8485L170.264 31.5753H158.024L139.481 93.9897H151.719L158.397 71.1907H168.41C175.458 71.1907 177.312 66.3334 178.424 62.9697L188.811 27.4648C190.294 22.9799 188.44 19.2437 182.875 19.2437H156.912L154.315 29.7072H174.344C176.2 29.7072 176.941 30.8285 176.2 32.6985L168.412 58.8592C167.669 61.1016 166.555 61.8485 165.443 61.8485H161.363ZM131.69 31.5753H119.45L101.647 93.9897H113.887L131.69 31.5753ZM113.887 31.5753L95.7112 93.9897H83.4714L101.647 31.5753H113.887ZM119.45 93.9897L137.624 32.3241C137.996 30.4541 137.253 29.7072 135.77 29.7072H97.9387L100.905 19.2418H144.674C150.237 19.2418 152.463 22.9799 150.98 27.8392L131.69 93.9897H119.45ZM97.5656 19.2418C90.1501 44.2832 83.1021 69.3227 75.6828 93.9897H63.4429L63.8142 93.2409C64.5577 90.2172 65.4234 87.2254 66.4091 84.273L66.7804 83.1518H49.72L32.2865 107.07H17.8211L81.9883 19.2437L97.5656 19.2418ZM69.3772 73.8076H56.7662L77.9084 45.03C74.9422 54.3742 72.3453 64.0909 69.3772 73.8076Z" fill="white"/>
</svg>
