<svg width="129" height="53" viewBox="0 0 129 53" fill="none" xmlns="http://www.w3.org/2000/svg">
<path fill-rule="evenodd" clip-rule="evenodd" d="M38.2931 9.75372H13.6609C11.6976 9.75372 10.448 10.293 9.73437 12.4539L1.70352 40.5458C0.632556 44.3265 2.77448 45.7677 5.45143 45.7677H12.0549L16.1602 40.3654H8.84389C7.95066 40.3654 7.59428 40.0056 7.95066 39.1046L14.7337 15.156C14.9124 14.4363 15.2688 14.4363 15.8047 14.4363H34.7238L38.2931 9.75372ZM114.326 39.8252C114.147 40.3654 113.791 40.7252 113.255 40.7252H111.827C111.292 40.7252 111.113 40.3654 111.113 39.8252L118.253 15.6962H112.363L105.045 40.9056C104.152 44.147 105.937 45.7677 108.436 45.7677H113.791C116.289 45.7677 118.61 44.8676 119.502 41.9861L127.534 13.8952C128.426 11.5539 127.177 9.75279 124.5 9.75279H95.2282L93.8009 14.7952H120.216C121.108 14.7952 121.465 15.1551 121.108 16.0561L114.326 39.8252ZM103.617 0.929688H97.7275L95.2282 9.03311H101.118L103.617 0.929688ZM93.4436 15.5158H99.3334L98.2625 19.2965H103.081C105.759 19.2965 106.652 21.0976 105.937 23.4389L102.725 34.4229H97.3702L99.8685 25.7792C100.047 24.8792 99.6907 24.339 98.9762 24.339H96.8351L90.4094 45.7677H84.5195L93.4436 15.5158ZM78.6297 30.2815L82.9126 15.6953H77.0228L68.0996 45.7677H73.9885L77.2023 34.7827H82.0203C85.4118 34.7827 86.3042 32.4424 86.8392 30.8217L91.8376 13.7148C92.5513 11.5539 91.659 9.75372 88.9811 9.75372H76.4877L75.2381 14.7952H84.8759C85.7691 14.7952 86.1255 15.3355 85.7691 16.2365L82.0212 28.8412C81.6639 29.9216 81.128 30.2815 80.593 30.2815H78.6297ZM64.3508 15.6953H58.4609L49.8941 45.7677H55.784L64.3508 15.6953ZM55.784 15.6953L47.0376 45.7677H41.1478L49.8941 15.6953H55.784ZM58.4609 45.7677L67.2064 16.0561C67.385 15.1551 67.0277 14.7952 66.314 14.7952H48.1095L49.5368 9.75279H70.5988C73.2758 9.75279 74.3467 11.5539 73.6331 13.8952L64.3508 45.7677H58.4609ZM47.9299 9.75279C44.3616 21.8182 40.9701 33.8827 37.3999 45.7677H31.51L31.6887 45.4069C32.0464 43.95 32.463 42.5085 32.9374 41.086L33.116 40.5458H24.9065L16.5174 52.07H9.55664L40.4341 9.75372L47.9299 9.75279ZM34.3656 36.0436H28.2971L38.4708 22.178C37.0435 26.6802 35.7939 31.3619 34.3656 36.0436Z" fill="#0D0E0F"/>
</svg>
