<svg width="59" height="16" viewBox="0 0 59 16" fill="none" xmlns="http://www.w3.org/2000/svg">
<g clip-path="url(#clip0_1_8296)">
<path d="M8.02564 8.03822L13.6457 13.7934L13.5311 13.8978L13.4827 13.9437C11.909 15.3474 9.84697 16.0769 7.74065 15.9751C5.63434 15.8733 3.65225 14.9484 2.22124 13.3995C0.790235 11.8506 0.0247936 9.80158 0.0897593 7.69381C0.154725 5.58603 1.0449 3.58809 2.56858 2.13024C4.13515 0.696622 6.20346 -0.0620711 8.32547 0.0185172C10.4475 0.0991056 12.4523 1.01249 13.9056 2.56079L8.02564 8.03822Z" fill="#01B94F"/>
<path d="M2.57367 2.12807C4.14001 0.695711 6.20754 -0.0619843 8.32851 0.019078C10.4495 0.10014 12.4531 1.01344 13.9056 2.56117C13.9056 2.56117 9.23066 6.93803 9.1364 7.01446C9.1364 7.01446 8.08932 8.0004 8.09696 8.01568C8.1046 8.03097 13.6355 13.7708 13.6355 13.7708L13.5234 13.8778L13.475 13.9237C10.1733 16.828 5.11367 16.6955 2.12528 13.4651C0.690163 11.898 -0.0679085 9.82755 0.0160673 7.7043C0.100043 5.58104 1.01927 3.5769 2.57367 2.12807Z" fill="url(#paint0_radial_1_8296)"/>
<path d="M2.57639 2.12269C4.14398 0.692217 6.21162 -0.0637563 8.3322 0.0182445C10.4528 0.100245 12.4559 1.01363 13.9083 2.56088C13.9083 2.56088 9.35822 6.84093 9.17224 6.99124C9.17224 6.99124 8.15318 7.96444 8.17102 7.99501C8.20923 8.08673 13.6281 13.745 13.6281 13.745L13.516 13.852L13.4676 13.8979C10.1735 16.7971 5.1113 16.6545 2.1331 13.4342C0.700132 11.8715 -0.0573255 9.80584 0.0257028 7.68719C0.108731 5.56853 1.02552 3.5685 2.57639 2.12269Z" fill="url(#paint1_radial_1_8296)"/>
<path d="M2.58073 2.12048C4.14839 0.691881 6.21512 -0.0626816 8.33447 0.0197852C10.4538 0.102252 12.4557 1.01513 13.9076 2.56122C13.9076 2.56122 9.4874 6.7419 9.20206 6.96865C9.20206 6.96865 8.21867 7.92656 8.23651 7.97242C8.2951 8.10999 13.6171 13.7225 13.6171 13.7225L13.5025 13.8295L13.4541 13.8728C10.1702 16.7643 5.11055 16.6166 2.13744 13.404C0.706786 11.8456 -0.0495195 9.78473 0.0335263 7.67087C0.116572 5.55702 1.03223 3.56179 2.58073 2.12048Z" fill="url(#paint2_radial_1_8296)"/>
<path d="M2.58324 2.11756C4.1511 0.690067 6.21746 -0.0635677 8.3362 0.0193704C10.4549 0.102309 12.4561 1.01517 13.9075 2.56085C13.9075 2.56085 9.61475 6.63709 9.23515 6.94535C9.23515 6.94535 8.28233 7.89053 8.30781 7.95167C8.38423 8.13511 13.6069 13.6992 13.6069 13.6992L13.4948 13.8036C13.4948 13.8036 13.4464 13.8469 13.4464 13.8495C10.1701 16.7309 5.11051 16.5729 2.14505 13.3731C0.71669 11.8195 -0.0389369 9.76379 0.0431635 7.65496C0.125264 5.54612 1.03842 3.55543 2.58324 2.11756Z" fill="url(#paint3_radial_1_8296)"/>
<path d="M2.5893 2.11271C4.15755 0.687418 6.22318 -0.0643616 8.34069 0.019519C10.4582 0.1034 12.4579 1.01622 13.9085 2.5611C13.9085 2.5611 9.74563 6.54562 9.26922 6.92267C9.26922 6.92267 8.34698 7.85256 8.37755 7.92899C8.47436 8.15828 13.6002 13.6739 13.5977 13.6765L13.4856 13.7809L13.4372 13.8268C10.1685 16.6954 5.11147 16.5349 2.15365 13.3427C0.727763 11.7931 -0.0268061 9.74209 0.054824 7.63785C0.136454 5.53361 1.04765 3.54722 2.5893 2.11271Z" fill="url(#paint4_radial_1_8296)"/>
<path d="M2.59123 2.11029C4.15968 0.686095 6.22495 -0.0647578 8.34184 0.0195939C10.4587 0.103946 12.4577 1.01675 13.9079 2.56123C13.9079 2.56123 9.8724 6.44893 9.30173 6.89222C9.30173 6.89222 8.41005 7.80683 8.44827 7.89854C8.56291 8.17369 13.5894 13.6409 13.5894 13.6409L13.4773 13.7709L13.4289 13.8142C10.1654 16.6624 5.11085 16.4968 2.15813 13.3123C0.734862 11.7671 -0.0185828 9.72113 0.0625792 7.6219C0.143741 5.52267 1.05291 3.541 2.59123 2.11029Z" fill="url(#paint5_radial_1_8296)"/>
<path d="M2.59616 2.10738C4.16481 0.684284 6.22971 -0.0656417 8.346 0.0191811C10.4623 0.104004 12.4605 1.01679 13.9103 2.56086C13.9103 2.56086 10.0022 6.35176 9.33723 6.89186C9.33723 6.89186 8.47358 7.79118 8.51689 7.89818C8.66211 8.20644 13.5816 13.6278 13.5791 13.6278L13.467 13.7323L13.4186 13.7781C10.1652 16.629 5.11069 16.4557 2.16561 13.2813C0.74433 11.7409 -0.00841603 9.69984 0.0722858 7.60541C0.152988 5.51098 1.06056 3.53393 2.59616 2.10738Z" fill="url(#paint6_radial_1_8296)"/>
<path d="M2.59858 2.10233C4.16774 0.680649 6.23247 -0.067905 8.34815 0.0178656C10.4638 0.103636 12.4612 1.01687 13.9101 2.5609C13.9101 2.5609 10.1294 6.25244 9.37022 6.85623C9.37022 6.85623 8.53714 7.74281 8.58809 7.87529C8.74095 8.24215 13.5713 13.6151 13.5687 13.6151C13.5662 13.6151 13.4643 13.7145 13.4566 13.7196L13.4082 13.7629C10.1625 16.5959 5.10801 16.4175 2.17058 13.261C0.74798 11.7243 -0.00609288 9.68559 0.0741687 7.59305C0.15443 5.50051 1.06246 3.52552 2.59858 2.10233Z" fill="url(#paint7_radial_1_8296)"/>
<path d="M2.60434 2.09964C4.17357 0.679834 6.23738 -0.0673138 8.35183 0.018922C10.4663 0.105158 12.4624 1.01789 13.9108 2.56076C13.9108 2.56076 10.26 6.15549 9.404 6.83316C9.404 6.83316 8.6015 7.70446 8.66009 7.85222C8.83078 8.26494 13.5618 13.5895 13.5618 13.5921L13.4497 13.6965L13.4013 13.7398C10.1632 16.5728 5.10868 16.3868 2.19162 13.2303C0.770674 11.6994 0.0159105 9.66681 0.0933061 7.57951C0.170702 5.49222 1.07392 3.52111 2.60434 2.09964Z" fill="url(#paint8_radial_1_8296)"/>
<path d="M2.60737 2.09723C4.17679 0.678516 6.24025 -0.0677073 8.35408 0.0189994C10.4679 0.105706 12.4633 1.01842 13.9113 2.5609C13.9113 2.5609 10.3879 6.05626 9.42742 6.81037C9.42742 6.81037 8.66313 7.66892 8.71917 7.82942C8.91789 8.28036 13.5546 13.5565 13.5521 13.5591L13.44 13.661C13.44 13.661 13.3967 13.7017 13.3916 13.7068C10.1611 16.5296 5.10916 16.336 2.18192 13.1973C1.48097 12.4406 0.935952 11.5531 0.577981 10.5857C0.220011 9.61834 0.0560994 8.5899 0.0956072 7.55915C0.135115 6.5284 0.377268 5.51552 0.808239 4.57836C1.23921 3.6412 1.85056 2.79811 2.60737 2.09723Z" fill="url(#paint9_radial_1_8296)"/>
<path d="M2.61149 2.09191C4.18129 0.675392 6.24402 -0.0689811 8.35663 0.0186672C10.4692 0.106316 12.4632 1.01899 13.9103 2.56068C13.9103 2.56068 10.5168 5.95923 9.46975 6.78722C9.46975 6.78722 8.72838 7.63304 8.79972 7.80628C9.00863 8.31581 13.5434 13.541 13.5434 13.5436L13.4313 13.6455L13.3829 13.6888C10.1576 16.4963 5.10818 16.2976 2.19113 13.1614C0.77922 11.6376 0.0303344 9.61548 0.109164 7.53962C0.187994 5.46377 1.08808 3.50422 2.61149 2.09191Z" fill="url(#paint10_radial_1_8296)"/>
<path d="M2.6146 2.08972C4.18502 0.674147 6.2478 -0.0693717 8.36022 0.018745C10.4726 0.106862 12.4663 1.01959 13.9134 2.56104C13.9134 2.56104 10.6448 5.87298 9.50343 6.7672C9.50343 6.7672 8.79519 7.59519 8.86907 7.78626C9.09836 8.32891 13.5364 13.5159 13.5338 13.5159L13.4217 13.6204L13.3733 13.6637C10.1582 16.4661 5.10874 16.2623 2.19933 13.1363C1.5006 12.3841 0.957015 11.5014 0.599681 10.5389C0.242348 9.57642 0.078273 8.55291 0.116842 7.52693C0.155411 6.50095 0.395866 5.49265 0.824455 4.55968C1.25304 3.62671 1.86136 2.78739 2.6146 2.08972Z" fill="url(#paint11_radial_1_8296)"/>
<path d="M2.61862 2.08705C4.1891 0.67334 6.25096 -0.0687774 8.36215 0.019804C10.4733 0.108385 12.4658 1.02061 13.9123 2.56091C13.9123 2.56091 10.7736 5.7633 9.53548 6.74414C9.53548 6.74414 8.8578 7.55939 8.93933 7.7632C9.19409 8.35935 13.5251 13.4929 13.5251 13.4954L13.413 13.5999C13.413 13.5999 13.3697 13.6381 13.3671 13.6432C10.1571 16.4456 5.11022 16.2239 2.2059 13.1082C-0.698416 9.99239 -0.5532 4.96334 2.61862 2.08705Z" fill="url(#paint12_radial_1_8296)"/>
<path d="M2.62218 2.08201C4.19317 0.669716 6.25486 -0.0710325 8.36544 0.0184959C10.476 0.108024 12.4676 1.02071 13.9133 2.56096C13.9133 2.56096 10.902 5.66145 9.58234 6.71617C9.58234 6.71617 8.93269 7.51613 9.02186 7.73523C9.28936 8.37723 13.5261 13.4623 13.5261 13.4649L13.414 13.5668L13.3656 13.6101C10.153 16.3947 5.09594 16.1781 2.21201 13.07C-0.671925 9.96187 -0.541995 4.95065 2.62218 2.08201Z" fill="url(#paint13_radial_1_8296)"/>
<path d="M2.62618 2.07933C4.19723 0.668912 6.258 -0.0704365 8.36736 0.0195564C10.4767 0.109549 12.467 1.02173 13.9122 2.56084C13.9122 2.56084 11.0309 5.56706 9.60418 6.69821C9.60418 6.69821 8.9851 7.48543 9.07936 7.71727C9.36725 8.40259 13.5021 13.4393 13.5021 13.4418L13.39 13.5437L13.3416 13.587C10.1519 16.3614 5.09485 16.1372 2.21601 13.0393C-0.662832 9.94136 -0.532901 4.93779 2.62618 2.07933Z" fill="url(#paint14_radial_1_8296)"/>
<path d="M2.63037 2.07693C4.20161 0.667601 6.26202 -0.0708257 8.37077 0.0196376C10.4795 0.110101 12.4691 1.02227 13.9139 2.56098C13.9139 2.56098 11.1599 5.47039 9.63894 6.67542C9.63894 6.67542 9.05044 7.43972 9.15234 7.69448C9.45806 8.42056 13.5037 13.4165 13.5037 13.419L13.3942 13.5209L13.3458 13.5643C10.151 16.3183 5.09649 16.0992 2.2253 13.0063C-0.645901 9.91348 -0.523614 4.92774 2.63037 2.07693Z" fill="url(#paint15_radial_1_8296)"/>
<path d="M2.6341 2.07183C4.20642 0.665146 6.26639 -0.071102 8.37414 0.0202911C10.4819 0.111684 12.4704 1.02348 13.9151 2.56098C13.9151 2.56098 11.2884 5.36339 9.68088 6.6525C9.68088 6.6525 9.12294 7.41679 9.22994 7.67156C9.54585 8.45114 13.5023 13.391 13.4871 13.3936L13.375 13.4955C13.36 13.5112 13.3439 13.5257 13.3266 13.5388C10.1496 16.2953 5.09512 16.0635 2.23157 12.9783C-0.631981 9.8931 -0.509694 4.915 2.6341 2.07183Z" fill="url(#paint16_radial_1_8296)"/>
<path d="M2.63752 2.06918C4.21173 0.664608 6.27294 -0.0684206 8.38051 0.0267941C10.4881 0.122009 12.4748 1.03791 13.9159 2.57871C13.9159 2.57871 11.4167 5.27412 9.70469 6.63711C9.70469 6.63711 9.17733 7.38102 9.29197 7.65616C9.6359 8.48415 13.4803 13.3782 13.4777 13.3807C13.4752 13.3833 13.3835 13.4699 13.3657 13.4826L13.3198 13.5259C10.148 16.2621 5.096 16.0175 2.23754 12.9476C-0.620912 9.87771 -0.508816 4.90216 2.63752 2.06918Z" fill="url(#paint17_radial_1_8296)"/>
<path d="M2.64217 2.06673C4.21582 0.663093 6.27605 -0.0693885 8.38259 0.0258224C10.4891 0.121033 12.4749 1.03638 13.9155 2.57626C13.9155 2.57626 11.5462 5.1825 9.73736 6.61683C9.73736 6.61683 9.24057 7.34545 9.36031 7.63588C9.72462 8.50973 13.4722 13.3553 13.4671 13.3579L13.3576 13.4598L13.3092 13.5031C10.145 16.2291 5.09555 15.9794 2.24473 12.9172C-0.606081 9.85488 -0.496532 4.88952 2.64217 2.06673Z" fill="url(#paint18_radial_1_8296)"/>
<path d="M2.64585 2.05131C4.21965 0.64905 6.27919 -0.0825507 8.38492 0.0126451C10.4906 0.107841 12.4758 1.02229 13.9166 2.56083C13.9166 2.56083 11.6747 5.07027 9.77415 6.57847C9.77415 6.57847 9.30539 7.29181 9.43277 7.59753C9.81492 8.51723 13.4631 13.317 13.4606 13.3195L13.3485 13.4215L13.3001 13.4622C10.1461 16.1958 5.09668 15.9385 2.25096 12.889C-0.594754 9.83946 -0.485205 4.87665 2.64585 2.05131Z" fill="url(#paint19_radial_1_8296)"/>
<path d="M2.65037 2.0513C4.22361 0.649977 6.28218 -0.0810772 8.38687 0.0141147C10.4916 0.109307 12.4757 1.02321 13.916 2.56083C12.6495 3.99697 11.2757 5.33493 9.8067 6.56318C9.8067 6.56318 9.3685 7.26379 9.50353 7.58224C9.90351 8.5478 13.4524 13.2966 13.4498 13.3017L13.3403 13.4011L13.2919 13.4444C10.143 16.1627 5.09611 15.9003 2.25803 12.8584C-0.580046 9.81653 -0.47814 4.85371 2.65037 2.0513Z" fill="url(#paint20_radial_1_8296)"/>
<path d="M2.6521 2.05127C4.22562 0.65056 6.28406 -0.0800892 8.38856 0.0150939C10.4931 0.110277 12.4771 1.02376 13.9178 2.5608C12.6689 3.99302 11.3057 5.32132 9.84155 6.53258C9.84155 6.53258 9.43648 7.21789 9.58679 7.55164C10.0071 8.57069 13.4592 13.266 13.4541 13.2685L13.3446 13.3705L13.2962 13.4138C10.1422 16.127 5.09529 15.8595 2.26231 12.8278C-0.570673 9.79611 -0.468767 4.85368 2.6521 2.05127Z" fill="url(#paint21_radial_1_8296)"/>
<path d="M2.65857 2.05122C4.23211 0.652656 6.2893 -0.0766399 8.39237 0.0185219C10.4955 0.113684 12.4784 1.02579 13.9192 2.56075C12.6899 3.99399 11.3361 5.31544 9.87351 6.5096C9.87351 6.5096 9.499 7.18218 9.64422 7.52866C10.0824 8.59612 13.4351 13.2609 13.4326 13.2609C13.43 13.2609 13.3434 13.3449 13.3205 13.3628L13.2746 13.4035C10.141 16.0938 5.09667 15.8085 2.27133 12.7972C-0.554009 9.78587 -0.459746 4.85363 2.65857 2.05122Z" fill="url(#paint22_radial_1_8296)"/>
<path d="M2.65991 2.05145C4.23331 0.653657 6.28995 -0.075165 8.39241 0.0199905C10.4949 0.115146 12.4773 1.02677 13.918 2.56097C12.7086 3.99682 11.365 5.31398 9.90542 6.49454C9.90542 6.49454 9.56148 7.15183 9.71179 7.5136C10.1729 8.61673 13.4263 13.2254 13.4212 13.228L13.3116 13.3273L13.2632 13.3706C10.1373 16.0635 5.09546 15.7807 2.27777 12.7668C-0.539929 9.75298 -0.450761 4.82838 2.65991 2.05145Z" fill="url(#paint23_radial_1_8296)"/>
<path d="M2.66206 2.05168C4.23532 0.654658 6.2914 -0.0736901 8.39325 0.0214591C10.4951 0.116608 12.477 1.02775 13.9176 2.56121C12.7289 3.99957 11.3944 5.31096 9.93559 6.47439C9.93559 6.47439 9.62223 7.1164 9.78018 7.49345C10.2591 8.64244 13.4131 13.2002 13.4106 13.2053L13.2985 13.3046L13.2501 13.3479C10.1369 16.0281 5.09506 15.7402 2.29265 12.7365C-0.509759 9.73283 -0.440972 4.81587 2.66206 2.05168Z" fill="url(#paint24_radial_1_8296)"/>
<path d="M2.66774 2.05165C4.24072 0.656171 6.2957 -0.0712287 8.39632 0.0239079C10.4969 0.119044 12.4777 1.02922 13.9181 2.56118C12.7518 4.00004 11.429 5.3048 9.97439 6.45143C9.97439 6.45143 9.68906 7.0807 9.85465 7.47049C10.3642 8.66534 13.4214 13.1772 13.4035 13.1823L13.294 13.2817L13.2456 13.3224C10.1349 15.9949 5.09565 15.6994 2.29324 12.7059C-0.509175 9.71242 -0.432745 4.80311 2.66774 2.05165Z" fill="url(#paint25_radial_1_8296)"/>
<path d="M2.67024 2.05138C4.24337 0.657272 6.29766 -0.0692543 8.39747 0.0258674C10.4973 0.120989 12.4775 1.03028 13.9181 2.5609C12.7752 4.00288 11.4621 5.30141 10.0075 6.42823C10.0075 6.42823 9.7527 7.04221 9.92339 7.44729C10.4329 8.68799 13.3984 13.1515 13.3933 13.154C13.3882 13.1566 13.3092 13.233 13.2837 13.2534L13.2353 13.2967C10.1348 15.9615 5.0956 15.6609 2.29319 12.6751C-0.509219 9.68922 -0.422599 4.79009 2.67024 2.05138Z" fill="url(#paint26_radial_1_8296)"/>
<path d="M2.67593 2.03637C4.25085 0.644959 6.30572 -0.0784312 8.40495 0.0195393C10.5042 0.11751 12.4827 1.02914 13.9212 2.56118C13.9212 2.56118 12.7035 4.29358 10.0412 6.40558C10.0412 6.40558 9.81698 7.00682 9.99531 7.42463C10.5303 8.69846 13.3888 13.1288 13.3862 13.1314L13.2741 13.2307L13.2283 13.274C10.1329 15.9287 5.09619 15.6204 2.29379 12.6448C-0.508623 9.66911 -0.41436 4.77763 2.67593 2.03637Z" fill="url(#paint27_radial_1_8296)"/>
<path d="M2.67769 2.03085C4.25339 0.641466 6.30795 -0.0801659 8.40639 0.0187409C10.5048 0.117648 12.4824 1.02933 13.9204 2.56077C13.9204 2.56077 12.8326 4.18616 10.0735 6.38223C9.9707 6.71414 9.9707 7.06938 10.0735 7.40129C10.6289 8.73371 13.3854 13.1004 13.3854 13.1055L13.2759 13.2048L13.2275 13.2456C10.1296 15.8951 5.0954 15.5818 2.31083 12.6163C-0.473747 9.65086 -0.404961 4.76703 2.67769 2.03085Z" fill="url(#paint28_radial_1_8296)"/>
<path d="M2.68364 2.02875C4.25882 0.639998 6.31274 -0.0810462 8.41034 0.0183415C10.5079 0.117729 12.4845 1.02974 13.9213 2.56121C13.9213 2.56121 12.9608 4.08979 10.0998 6.34955C10.0098 6.68473 10.0196 7.03889 10.1279 7.36861C10.7011 8.76472 13.371 13.0855 13.3659 13.0906L13.2564 13.19L13.2105 13.2307C10.1304 15.8625 5.09626 15.5542 2.31678 12.5862C-0.462703 9.61818 -0.393916 4.75473 2.68364 2.02875Z" fill="url(#paint29_radial_1_8296)"/>
<path d="M2.68516 2.02588C4.26053 0.638215 6.31408 -0.0819128 8.41107 0.0179441C10.5081 0.117801 12.4839 1.0298 13.9203 2.56088C13.9203 2.56088 13.0897 4.0003 10.1396 6.33904C10.0686 6.67826 10.0906 7.03035 10.2033 7.35809C10.7969 8.78223 13.3623 13.0546 13.3572 13.0597L13.2477 13.1565L13.1993 13.1998C10.1268 15.829 5.09524 15.5004 2.3234 12.5553C-0.491747 9.56945 -0.387294 4.74166 2.68516 2.02588Z" fill="url(#paint30_radial_1_8296)"/>
<path d="M2.68993 2.0211C4.26593 0.636221 6.31862 -0.0816793 8.41422 0.0191069C10.5098 0.119893 12.4841 1.03147 13.92 2.5612C13.92 2.5612 13.2168 3.89362 10.1724 6.30624C10.1198 6.64908 10.1549 6.99964 10.2743 7.3253C10.8857 8.79529 13.3518 13.0218 13.3467 13.0244L13.2372 13.1237L13.1888 13.1645C10.1316 15.7758 5.10001 15.4574 2.32817 12.5072C-0.443672 9.55703 -0.377433 4.72925 2.68993 2.0211Z" fill="url(#paint31_radial_1_8296)"/>
<path d="M2.69441 2.01847C4.27101 0.634517 6.32375 -0.0825429 8.41916 0.0187098C10.5146 0.119962 12.4886 1.0316 13.9244 2.56112C13.9244 2.56112 13.3487 3.79418 10.21 6.28322C10.1756 6.62899 10.2227 6.97801 10.3475 7.30228C10.9768 8.83851 13.3436 13.0065 13.3385 13.0192L13.2289 13.1186L13.1831 13.1593C10.1259 15.7605 5.09684 15.4216 2.33774 12.4969C-0.464666 9.52638 -0.365308 4.71642 2.69441 2.01847Z" fill="url(#paint32_radial_1_8296)"/>
<path d="M2.69834 2.01586C4.2747 0.633153 6.32666 -0.0829203 8.42104 0.018804C10.5154 0.120528 12.4883 1.03209 13.9233 2.56105C13.9233 2.56105 13.4749 3.70749 10.2419 6.27043C10.2275 6.61851 10.2865 6.96572 10.4152 7.28948C11.0648 8.86138 13.3348 12.9911 13.3297 13.0064L13.2201 13.1032L13.1717 13.144C10.1222 15.7273 5.09567 15.3834 2.34167 12.4638C-0.453101 9.50339 -0.358838 4.70362 2.69834 2.01586Z" fill="url(#paint33_radial_1_8296)"/>
<path d="M2.70067 2.01085C4.27781 0.630162 6.32946 -0.0841578 8.42305 0.0185017C10.5166 0.121161 12.4886 1.03278 13.923 2.56114C13.923 2.56114 13.6046 3.60822 10.2748 6.24758C10.2803 6.6017 10.352 6.95165 10.4863 7.27938C11.1563 8.88694 13.3244 12.9683 13.3193 12.9734L13.2097 13.0702L13.1639 13.1109C10.122 15.6942 5.09546 15.3427 2.3491 12.4333C-0.440571 9.48309 -0.348856 4.69097 2.70067 2.01085Z" fill="url(#paint34_radial_1_8296)"/>
<path d="M2.7062 2.00828C4.28421 0.633014 6.33404 -0.0767473 8.42461 0.028256C10.5152 0.133259 12.4836 1.04484 13.9158 2.57131C13.9158 2.57131 13.7248 3.51139 10.3007 6.22463C10.3303 6.57991 10.4163 6.92821 10.5555 7.25642C11.2459 8.91239 13.3171 12.9453 13.312 12.9504L13.2025 13.0472C13.1852 13.0594 13.169 13.073 13.1541 13.088C10.1198 15.6611 5.09589 15.2993 2.35717 12.4027C-0.427406 9.46013 -0.340786 4.68075 2.7062 2.00828Z" fill="url(#paint35_radial_1_8296)"/>
<path d="M2.70889 2.00568C4.28696 0.63013 6.33711 -0.0795849 8.42787 0.0259036C10.5186 0.131392 12.4869 1.04386 13.9185 2.57126C13.9185 2.57126 13.8574 3.41453 10.3365 6.20165C10.3866 6.55732 10.4825 6.90499 10.6219 7.236C11.3352 8.93018 13.3071 12.9198 13.302 12.9249L13.1925 13.0217C13.1772 13.0217 13.1593 13.0523 13.1441 13.0625C10.1174 15.6279 5.09604 15.2636 2.36241 12.372C-0.414519 9.43971 -0.330447 4.66797 2.70889 2.00568Z" fill="url(#paint36_radial_1_8296)"/>
<path d="M2.71449 2.00044C4.29374 0.626739 6.344 -0.0813009 8.43439 0.0251192C10.5248 0.131539 12.4925 1.04413 13.9241 2.57111C13.9241 2.57111 13.9904 3.32521 10.3753 6.18112C10.4493 6.53507 10.5585 6.88072 10.7014 7.21292C11.4274 8.9606 13.3025 12.8967 13.2949 12.9018C13.2872 12.9069 13.221 12.9706 13.1853 12.9986L13.1394 13.0394C10.1205 15.5998 5.09653 15.2227 2.37055 12.3413C-0.403829 9.41663 -0.319757 4.65508 2.71449 2.00044Z" fill="url(#paint37_radial_1_8296)"/>
<path d="M2.71615 1.99816C4.29576 0.624497 6.34654 -0.0830541 8.43713 0.0243267C10.5277 0.131708 12.4952 1.04565 13.9258 2.57393C13.9258 2.57393 14.1194 3.21848 10.41 6.15847C10.5053 6.51096 10.6244 6.85654 10.7667 7.19281C11.5132 8.97617 13.2889 12.8741 13.2838 12.8792L13.1742 12.976L13.1258 13.0167C10.1171 15.5542 5.09565 15.1822 2.37477 12.3136C-0.391975 9.39398 -0.312998 4.64262 2.71615 1.99816Z" fill="url(#paint38_radial_1_8296)"/>
<path d="M2.72076 1.99555C4.30069 0.622209 6.35166 -0.0849001 8.44227 0.0229562C10.5329 0.130812 12.5002 1.04523 13.9304 2.57387C13.9304 2.57387 14.2463 3.11906 10.4452 6.12783C10.4452 6.12783 10.5853 6.55584 10.8401 7.16218C11.6044 9.00157 13.2808 12.8434 13.2757 12.8485L13.1661 12.9453L13.1202 12.9835C10.114 15.5286 5.09516 15.1439 2.38192 12.2829C-0.379727 9.37098 -0.303297 4.62982 2.72076 1.99555Z" fill="url(#paint39_radial_1_8296)"/>
<path d="M13.263 12.833C10.2874 15.5081 5.14367 15.1539 2.38712 12.242C-0.369429 9.33003 -0.295547 4.59905 2.72341 1.98008C4.30426 0.607975 6.35546 -0.097855 8.44589 0.0109424C10.5363 0.11974 12.5032 1.03469 13.933 2.56349C13.933 2.56349 14.384 3.01187 10.4835 6.10217C10.4759 6.11236 13.2732 12.8254 13.263 12.833Z" fill="url(#paint40_radial_1_8296)"/>
<path d="M10.3645 6.19824C9.14414 7.19947 7.64357 8.37903 5.89844 9.70126C7.19486 11.1032 8.70261 12.2938 10.367 13.2297C11.7962 13.994 12.9147 14.1367 13.4624 13.6527C14.0101 13.1686 13.9439 12.0527 13.307 10.5955C12.5529 8.99008 11.5609 7.50765 10.3645 6.19824Z" fill="url(#paint41_linear_1_8296)"/>
<path d="M10.4731 6.09912L9.86164 6.60865C10.9812 7.83933 11.9119 9.22935 12.6233 10.7333C13.2475 12.1702 13.2322 12.8911 13.0309 13.072C12.8297 13.2529 11.9609 13.2988 10.5724 12.5625C9.03437 11.6902 7.64329 10.5812 6.45035 9.27603L5.76758 9.78556L5.92808 9.94097C8.81966 12.9294 11.9482 14.6312 13.3239 14.0121C13.3647 13.9917 13.4054 13.9713 13.4436 13.9484H13.4589C13.5121 13.9154 13.5624 13.8779 13.6092 13.8363C13.6588 13.7915 13.704 13.742 13.7443 13.6886C14.6436 12.509 13.278 9.33208 10.5572 6.21886L10.4731 6.09912Z" fill="#84EEB1"/>
</g>
<path d="M22.784 14.1732C21.3049 14.1732 20.1378 13.6358 19.2827 12.5612C18.4276 11.4749 18 9.9496 18 7.98514C18 6.06691 18.4218 4.55313 19.2653 3.44379C20.1205 2.33445 21.3453 1.77979 22.94 1.77979C23.4947 1.77979 23.9916 1.86067 24.4307 2.02245C24.8698 2.17268 25.228 2.34601 25.5054 2.54246V4.2238C25.1934 4.02735 24.8236 3.84246 24.396 3.66913C23.9685 3.49579 23.5178 3.40913 23.044 3.40913C22.0271 3.40913 21.2876 3.78468 20.8253 4.5358C20.3631 5.28691 20.132 6.43669 20.132 7.98514C20.132 9.48737 20.3631 10.6256 20.8253 11.3998C21.2876 12.1625 21.9925 12.5438 22.94 12.5438C23.4947 12.5438 23.9742 12.4629 24.3787 12.3012C24.7831 12.1278 25.1587 11.914 25.5054 11.6598V13.3412C25.2396 13.5261 24.8814 13.7109 24.4307 13.8958C23.98 14.0807 23.4311 14.1732 22.784 14.1732Z" fill="black"/>
<path d="M26.8102 5.28113H33.6049V13.9998H31.5423V6.91047H28.8729V13.9998H26.8102V5.28113Z" fill="black"/>
<path d="M34.6482 12.2145C34.6482 12.2145 34.6886 12.2434 34.7695 12.3012C34.8504 12.3474 34.966 12.3705 35.1162 12.3705C35.4513 12.3705 35.6709 12.1972 35.7749 11.8505C35.8789 11.5038 35.9482 10.8683 35.9829 9.94382L36.1562 5.28113H42.0669V13.9998H40.0042V6.91047H37.9069L37.7855 10.0305C37.7393 11.4749 37.5602 12.5265 37.2482 13.1852C36.9362 13.8438 36.3411 14.1732 35.4629 14.1732C35.2202 14.1732 35.0237 14.1443 34.8735 14.0865C34.7233 14.0287 34.6482 13.9998 34.6482 13.9998V12.2145Z" fill="black"/>
<path d="M43.8051 5.28113H45.8158V10.6718L49.0051 5.28113H50.7905V13.9998H48.7798V8.60915L45.5904 13.9998H43.8051V5.28113Z" fill="black"/>
<path d="M58.9186 6.91047H56.4919V13.9998H54.4293V6.91047H52.0026V5.28113H58.9186V6.91047Z" fill="black"/>
<defs>
<radialGradient id="paint0_radial_1_8296" cx="0" cy="0" r="1" gradientUnits="userSpaceOnUse" gradientTransform="translate(10.0557 0.906632) rotate(-2.29061) scale(36.6772 27.1417)">
<stop stop-color="#03BA50"/>
<stop offset="0.8" stop-color="#01B64E"/>
</radialGradient>
<radialGradient id="paint1_radial_1_8296" cx="0" cy="0" r="1" gradientUnits="userSpaceOnUse" gradientTransform="translate(10.0522 0.903386) rotate(-2.29061) scale(36.6007 27.0851)">
<stop stop-color="#04BC50"/>
<stop offset="0.8" stop-color="#01B34D"/>
</radialGradient>
<radialGradient id="paint2_radial_1_8296" cx="0" cy="0" r="1" gradientUnits="userSpaceOnUse" gradientTransform="translate(10.0427 0.910599) rotate(-2.29061) scale(36.5242 27.0285)">
<stop stop-color="#06BD51"/>
<stop offset="0.72" stop-color="#02B24C"/>
<stop offset="0.8" stop-color="#01B04B"/>
</radialGradient>
<radialGradient id="paint3_radial_1_8296" cx="0" cy="0" r="1" gradientUnits="userSpaceOnUse" gradientTransform="translate(10.0289 0.921749) rotate(-2.29061) scale(36.4477 26.9719)">
<stop stop-color="#08BF52"/>
<stop offset="0.56" stop-color="#04B44D"/>
<stop offset="0.8" stop-color="#01AD4A"/>
</radialGradient>
<radialGradient id="paint4_radial_1_8296" cx="0" cy="0" r="1" gradientUnits="userSpaceOnUse" gradientTransform="translate(10.0162 0.933052) rotate(-2.29061) scale(36.3712 26.9153)">
<stop stop-color="#0AC053"/>
<stop offset="0.48" stop-color="#05B54E"/>
<stop offset="0.8" stop-color="#01AA49"/>
</radialGradient>
<radialGradient id="paint5_radial_1_8296" cx="0" cy="0" r="1" gradientUnits="userSpaceOnUse" gradientTransform="translate(9.9995 0.960719) rotate(-1.71836) scale(36.2795 26.8553)">
<stop stop-color="#0BC253"/>
<stop offset="0.42" stop-color="#07B74E"/>
<stop offset="0.8" stop-color="#01A848"/>
</radialGradient>
<radialGradient id="paint6_radial_1_8296" cx="0" cy="0" r="1" gradientUnits="userSpaceOnUse" gradientTransform="translate(9.97825 0.967313) rotate(-1.71836) scale(36.203 26.7987)">
<stop stop-color="#0DC354"/>
<stop offset="0.37" stop-color="#08B84F"/>
<stop offset="0.8" stop-color="#01A546"/>
</radialGradient>
<radialGradient id="paint7_radial_1_8296" cx="0" cy="0" r="1" gradientUnits="userSpaceOnUse" gradientTransform="translate(10.2472 0.974461) rotate(-1.71836) scale(36.1265 26.7313)">
<stop stop-color="#0FC555"/>
<stop offset="0.33" stop-color="#0ABA50"/>
<stop offset="0.8" stop-color="#01A245"/>
</radialGradient>
<radialGradient id="paint8_radial_1_8296" cx="0" cy="0" r="1" gradientUnits="userSpaceOnUse" gradientTransform="translate(10.221 0.987237) rotate(-1.70136) scale(36.4103 26.6747)">
<stop stop-color="#11C656"/>
<stop offset="0.3" stop-color="#0CBB51"/>
<stop offset="0.8" stop-color="#019F44"/>
</radialGradient>
<radialGradient id="paint9_radial_1_8296" cx="0" cy="0" r="1" gradientUnits="userSpaceOnUse" gradientTransform="translate(10.2125 1.00044) rotate(-1.70135) scale(36.3331 26.6181)">
<stop stop-color="#12C856"/>
<stop offset="0.28" stop-color="#0EBD51"/>
<stop offset="0.77" stop-color="#029E44"/>
<stop offset="0.8" stop-color="#019C43"/>
</radialGradient>
<radialGradient id="paint10_radial_1_8296" cx="0" cy="0" r="1" gradientUnits="userSpaceOnUse" gradientTransform="translate(10.2026 1.01787) rotate(-1.70135) scale(36.2533 26.5597)">
<stop stop-color="#14C957"/>
<stop offset="0.26" stop-color="#0FBE52"/>
<stop offset="0.72" stop-color="#049F44"/>
<stop offset="0.8" stop-color="#019941"/>
</radialGradient>
<radialGradient id="paint11_radial_1_8296" cx="0" cy="0" r="1" gradientUnits="userSpaceOnUse" gradientTransform="translate(10.1866 1.03989) rotate(-1.70136) scale(36.176 26.5031)">
<stop stop-color="#16CB58"/>
<stop offset="0.24" stop-color="#11C053"/>
<stop offset="0.66" stop-color="#06A145"/>
<stop offset="0.8" stop-color="#019640"/>
</radialGradient>
<radialGradient id="paint12_radial_1_8296" cx="0" cy="0" r="1" gradientUnits="userSpaceOnUse" gradientTransform="translate(10.1665 1.06338) rotate(-1.70135) scale(36.0988 26.4465)">
<stop stop-color="#18CC59"/>
<stop offset="0.23" stop-color="#13C154"/>
<stop offset="0.62" stop-color="#07A246"/>
<stop offset="0.8" stop-color="#01933F"/>
</radialGradient>
<radialGradient id="paint13_radial_1_8296" cx="0" cy="0" r="1" gradientUnits="userSpaceOnUse" gradientTransform="translate(10.1484 1.09163) rotate(-1.70135) scale(36.019 26.388)">
<stop stop-color="#19CD59"/>
<stop offset="0.21" stop-color="#15C254"/>
<stop offset="0.59" stop-color="#09A347"/>
<stop offset="0.8" stop-color="#01903E"/>
</radialGradient>
<radialGradient id="paint14_radial_1_8296" cx="0" cy="0" r="1" gradientUnits="userSpaceOnUse" gradientTransform="translate(10.1231 1.12175) rotate(-1.70135) scale(35.9418 26.3315)">
<stop stop-color="#1BCF5A"/>
<stop offset="0.2" stop-color="#17C455"/>
<stop offset="0.56" stop-color="#0BA547"/>
<stop offset="0.8" stop-color="#018D3C"/>
</radialGradient>
<radialGradient id="paint15_radial_1_8296" cx="0" cy="0" r="1" gradientUnits="userSpaceOnUse" gradientTransform="translate(10.0981 1.0112) rotate(-1.13442) scale(35.8558 26.2743)">
<stop stop-color="#1DD05B"/>
<stop offset="0.19" stop-color="#18C556"/>
<stop offset="0.54" stop-color="#0CA648"/>
<stop offset="0.8" stop-color="#018B3B"/>
</radialGradient>
<radialGradient id="paint16_radial_1_8296" cx="0" cy="0" r="1" gradientUnits="userSpaceOnUse" gradientTransform="translate(10.0675 1.03417) rotate(-1.13442) scale(35.7759 26.2159)">
<stop stop-color="#1ED25B"/>
<stop offset="0.18" stop-color="#1AC756"/>
<stop offset="0.51" stop-color="#0EA848"/>
<stop offset="0.8" stop-color="#01883A"/>
</radialGradient>
<radialGradient id="paint17_radial_1_8296" cx="0" cy="0" r="1" gradientUnits="userSpaceOnUse" gradientTransform="translate(10.0392 1.05644) rotate(-1.13442) scale(35.6987 26.1593)">
<stop stop-color="#20D35C"/>
<stop offset="0.18" stop-color="#1BC857"/>
<stop offset="0.49" stop-color="#0FA949"/>
<stop offset="0.8" stop-color="#018539"/>
</radialGradient>
<radialGradient id="paint18_radial_1_8296" cx="0" cy="0" r="1" gradientUnits="userSpaceOnUse" gradientTransform="translate(10.0045 1.08793) rotate(-1.13442) scale(35.6216 26.1027)">
<stop stop-color="#22D55D"/>
<stop offset="0.17" stop-color="#1DCA58"/>
<stop offset="0.47" stop-color="#11AB4A"/>
<stop offset="0.8" stop-color="#018237"/>
</radialGradient>
<radialGradient id="paint19_radial_1_8296" cx="0" cy="0" r="1" gradientUnits="userSpaceOnUse" gradientTransform="translate(9.96617 1.11673) rotate(-1.13442) scale(35.5418 26.0442)">
<stop stop-color="#24D65E"/>
<stop offset="0.16" stop-color="#1FCB59"/>
<stop offset="0.45" stop-color="#13AC4B"/>
<stop offset="0.8" stop-color="#017F36"/>
</radialGradient>
<radialGradient id="paint20_radial_1_8296" cx="0" cy="0" r="1" gradientUnits="userSpaceOnUse" gradientTransform="translate(9.92369 1.15209) rotate(-1.13442) scale(35.4646 25.9877)">
<stop stop-color="#25D85E"/>
<stop offset="0.15" stop-color="#20CD59"/>
<stop offset="0.43" stop-color="#14AE4B"/>
<stop offset="0.79" stop-color="#017D36"/>
<stop offset="0.8" stop-color="#007C35"/>
</radialGradient>
<radialGradient id="paint21_radial_1_8296" cx="0" cy="0" r="1" gradientUnits="userSpaceOnUse" gradientTransform="translate(10.694 1.19195) rotate(-1.13442) scale(35.3874 25.9241)">
<stop stop-color="#27D95F"/>
<stop offset="0.15" stop-color="#22CE5A"/>
<stop offset="0.42" stop-color="#16AF4C"/>
<stop offset="0.77" stop-color="#027E36"/>
<stop offset="0.8" stop-color="#007934"/>
</radialGradient>
<radialGradient id="paint22_radial_1_8296" cx="0" cy="0" r="1" gradientUnits="userSpaceOnUse" gradientTransform="translate(10.4318 1.23306) rotate(-1.1233) scale(35.657 25.8657)">
<stop stop-color="#29DB60"/>
<stop offset="0.14" stop-color="#24D05B"/>
<stop offset="0.4" stop-color="#18B14D"/>
<stop offset="0.74" stop-color="#048037"/>
<stop offset="0.8" stop-color="#007632"/>
</radialGradient>
<radialGradient id="paint23_radial_1_8296" cx="0" cy="0" r="1" gradientUnits="userSpaceOnUse" gradientTransform="translate(10.3995 1.27905) rotate(-1.1233) scale(35.579 25.8092)">
<stop stop-color="#2BDC61"/>
<stop offset="0.14" stop-color="#26D15C"/>
<stop offset="0.39" stop-color="#1AB24E"/>
<stop offset="0.71" stop-color="#068138"/>
<stop offset="0.8" stop-color="#007331"/>
</radialGradient>
<radialGradient id="paint24_radial_1_8296" cx="0" cy="0" r="1" gradientUnits="userSpaceOnUse" gradientTransform="translate(10.368 1.32952) rotate(-1.1233) scale(35.4985 25.7507)">
<stop stop-color="#2CDE61"/>
<stop offset="0.13" stop-color="#27D35C"/>
<stop offset="0.37" stop-color="#1BB44E"/>
<stop offset="0.69" stop-color="#088339"/>
<stop offset="0.8" stop-color="#007030"/>
</radialGradient>
<radialGradient id="paint25_radial_1_8296" cx="0" cy="0" r="1" gradientUnits="userSpaceOnUse" gradientTransform="translate(10.3348 1.07443) rotate(-0.561705) scale(35.4154 25.6944)">
<stop stop-color="#2EDF62"/>
<stop offset="0.13" stop-color="#29D45D"/>
<stop offset="0.37" stop-color="#1DB54F"/>
<stop offset="0.67" stop-color="#098439"/>
<stop offset="0.8" stop-color="#006E2F"/>
</radialGradient>
<radialGradient id="paint26_radial_1_8296" cx="0" cy="0" r="1" gradientUnits="userSpaceOnUse" gradientTransform="translate(10.2958 1.11402) rotate(-0.561705) scale(35.3375 25.6379)">
<stop stop-color="#30E163"/>
<stop offset="0.13" stop-color="#2BD65E"/>
<stop offset="0.35" stop-color="#1FB750"/>
<stop offset="0.65" stop-color="#0B8639"/>
<stop offset="0.8" stop-color="#006B2D"/>
</radialGradient>
<radialGradient id="paint27_radial_1_8296" cx="0" cy="0" r="1" gradientUnits="userSpaceOnUse" gradientTransform="translate(10.2574 1.15863) rotate(-0.561706) scale(35.2568 25.5794)">
<stop stop-color="#31E263"/>
<stop offset="0.12" stop-color="#2CD75E"/>
<stop offset="0.34" stop-color="#20B850"/>
<stop offset="0.63" stop-color="#0D873A"/>
<stop offset="0.8" stop-color="#00682C"/>
</radialGradient>
<radialGradient id="paint28_radial_1_8296" cx="0" cy="0" r="1" gradientUnits="userSpaceOnUse" gradientTransform="translate(10.2125 1.20447) rotate(-0.561705) scale(35.1789 25.5229)">
<stop stop-color="#33E364"/>
<stop offset="0.12" stop-color="#2ED85F"/>
<stop offset="0.34" stop-color="#22B951"/>
<stop offset="0.62" stop-color="#0E883B"/>
<stop offset="0.8" stop-color="#00652B"/>
</radialGradient>
<radialGradient id="paint29_radial_1_8296" cx="0" cy="0" r="1" gradientUnits="userSpaceOnUse" gradientTransform="translate(10.1666 1.255) rotate(-0.561705) scale(35.0984 25.4644)">
<stop stop-color="#35E565"/>
<stop offset="0.12" stop-color="#30DA60"/>
<stop offset="0.33" stop-color="#24BB52"/>
<stop offset="0.6" stop-color="#108A3C"/>
<stop offset="0.8" stop-color="#00622A"/>
</radialGradient>
<radialGradient id="paint30_radial_1_8296" cx="0" cy="0" r="1" gradientUnits="userSpaceOnUse" gradientTransform="translate(10.1188 1.30668) rotate(-0.561705) scale(35.0204 25.4079)">
<stop stop-color="#37E666"/>
<stop offset="0.11" stop-color="#32DB61"/>
<stop offset="0.32" stop-color="#26BC53"/>
<stop offset="0.59" stop-color="#128B3C"/>
<stop offset="0.8" stop-color="#005F28"/>
</radialGradient>
<radialGradient id="paint31_radial_1_8296" cx="0" cy="0" r="1" gradientUnits="userSpaceOnUse" gradientTransform="translate(10.0664 1.3635) rotate(-0.561705) scale(34.9398 25.3494)">
<stop stop-color="#38E866"/>
<stop offset="0.11" stop-color="#33DD61"/>
<stop offset="0.31" stop-color="#27BE53"/>
<stop offset="0.57" stop-color="#148D3D"/>
<stop offset="0.8" stop-color="#005C27"/>
</radialGradient>
<radialGradient id="paint32_radial_1_8296" cx="0" cy="0" r="1" gradientUnits="userSpaceOnUse" gradientTransform="translate(10.0138 1.42372) rotate(-0.561706) scale(34.8619 25.2929)">
<stop stop-color="#3AE967"/>
<stop offset="0.11" stop-color="#35DE62"/>
<stop offset="0.3" stop-color="#29BF54"/>
<stop offset="0.56" stop-color="#158E3E"/>
<stop offset="0.8" stop-color="#005926"/>
</radialGradient>
<radialGradient id="paint33_radial_1_8296" cx="0" cy="0" r="1" gradientUnits="userSpaceOnUse" gradientTransform="translate(9.95803 1.4859) rotate(-0.561705) scale(34.7839 25.2363)">
<stop stop-color="#3CEB68"/>
<stop offset="0.11" stop-color="#37E063"/>
<stop offset="0.29" stop-color="#2BC155"/>
<stop offset="0.54" stop-color="#17903F"/>
<stop offset="0.8" stop-color="#005625"/>
</radialGradient>
<radialGradient id="paint34_radial_1_8296" cx="0" cy="0" r="1" gradientUnits="userSpaceOnUse" gradientTransform="translate(9.89543 1.55273) rotate(-0.561705) scale(34.7033 25.1778)">
<stop stop-color="#3EEC69"/>
<stop offset="0.1" stop-color="#39E164"/>
<stop offset="0.29" stop-color="#2DC256"/>
<stop offset="0.53" stop-color="#19913F"/>
<stop offset="0.8" stop-color="#005323"/>
</radialGradient>
<radialGradient id="paint35_radial_1_8296" cx="0" cy="0" r="1" gradientUnits="userSpaceOnUse" gradientTransform="translate(9.83351 1.15629) scale(34.6237 25.1192)">
<stop stop-color="#3FEE69"/>
<stop offset="0.1" stop-color="#3AE364"/>
<stop offset="0.28" stop-color="#2EC456"/>
<stop offset="0.52" stop-color="#1A9340"/>
<stop offset="0.8" stop-color="#005122"/>
</radialGradient>
<radialGradient id="paint36_radial_1_8296" cx="0" cy="0" r="1" gradientUnits="userSpaceOnUse" gradientTransform="translate(10.6511 1.21199) scale(34.8818 25.0607)">
<stop stop-color="#41EF6A"/>
<stop offset="0.1" stop-color="#3CE465"/>
<stop offset="0.28" stop-color="#30C557"/>
<stop offset="0.51" stop-color="#1C9441"/>
<stop offset="0.79" stop-color="#015022"/>
<stop offset="0.8" stop-color="#004E21"/>
</radialGradient>
<radialGradient id="paint37_radial_1_8296" cx="0" cy="0" r="1" gradientUnits="userSpaceOnUse" gradientTransform="translate(10.6012 1.27202) scale(34.8057 25.0061)">
<stop stop-color="#43F16B"/>
<stop offset="0.1" stop-color="#3EE666"/>
<stop offset="0.27" stop-color="#32C758"/>
<stop offset="0.5" stop-color="#1E9642"/>
<stop offset="0.77" stop-color="#035223"/>
<stop offset="0.8" stop-color="#004B20"/>
</radialGradient>
<radialGradient id="paint38_radial_1_8296" cx="0" cy="0" r="1" gradientUnits="userSpaceOnUse" gradientTransform="translate(10.5525 1.33623) scale(34.727 24.9495)">
<stop stop-color="#45F26C"/>
<stop offset="0.1" stop-color="#40E767"/>
<stop offset="0.27" stop-color="#34C859"/>
<stop offset="0.49" stop-color="#209742"/>
<stop offset="0.76" stop-color="#055323"/>
<stop offset="0.8" stop-color="#00481E"/>
</radialGradient>
<radialGradient id="paint39_radial_1_8296" cx="0" cy="0" r="1" gradientUnits="userSpaceOnUse" gradientTransform="translate(10.5015 1.40455) scale(34.6457 24.891)">
<stop stop-color="#46F46C"/>
<stop offset="0.09" stop-color="#41E967"/>
<stop offset="0.26" stop-color="#35CA59"/>
<stop offset="0.48" stop-color="#229943"/>
<stop offset="0.74" stop-color="#065524"/>
<stop offset="0.8" stop-color="#00451D"/>
</radialGradient>
<radialGradient id="paint40_radial_1_8296" cx="0" cy="0" r="1" gradientUnits="userSpaceOnUse" gradientTransform="translate(10.4536 1.47651) scale(34.5643 24.8326)">
<stop stop-color="#48F56D"/>
<stop offset="0.09" stop-color="#43EA68"/>
<stop offset="0.25" stop-color="#37CB5A"/>
<stop offset="0.47" stop-color="#239A44"/>
<stop offset="0.73" stop-color="#085625"/>
<stop offset="0.8" stop-color="#00421C"/>
</radialGradient>
<linearGradient id="paint41_linear_1_8296" x1="11.0167" y1="19.3314" x2="8.03591" y2="-2.04339" gradientUnits="userSpaceOnUse">
<stop offset="0.1" stop-color="#FF8475"/>
<stop offset="0.37" stop-color="#E84E43"/>
<stop offset="0.6" stop-color="#D6261F"/>
<stop offset="0.79" stop-color="#CC0E08"/>
<stop offset="0.9" stop-color="#C80500"/>
</linearGradient>
<clipPath id="clip0_1_8296">
<rect width="16" height="16" fill="white"/>
</clipPath>
</defs>
</svg>
