<svg width="45" height="16" viewBox="0 0 45 16" fill="none" xmlns="http://www.w3.org/2000/svg">
<path d="M28.2319 1.81982V13.8665H26.1376V3.44916H22.399V13.8665H20.3047V1.81982H28.2319Z" fill="black"/>
<path d="M31.7389 14.0398C30.8158 14.0398 30.1062 13.8607 29.61 13.5025V11.8212C29.8754 12.006 30.1639 12.1505 30.4754 12.2545C30.7985 12.3585 31.1793 12.4105 31.6178 12.4105C32.2755 12.4105 32.7717 12.2198 33.1063 11.8385C33.4409 11.4456 33.6486 10.9083 33.7294 10.2265H30.7004V8.59716H33.7121C33.5159 7.26827 32.8351 6.60382 31.6697 6.60382C31.312 6.60382 30.9543 6.6616 30.5966 6.77716C30.2504 6.89271 29.9735 7.01405 29.7658 7.14116V5.39049C29.985 5.27494 30.2793 5.17671 30.6485 5.09582C31.0177 5.01494 31.462 4.97449 31.9812 4.97449C32.6274 4.97449 33.1928 5.09005 33.6775 5.32116C34.1736 5.54071 34.5833 5.85271 34.9064 6.25716C35.241 6.65005 35.4891 7.1296 35.6506 7.69583C35.8237 8.25049 35.9103 8.85716 35.9103 9.51582C35.9103 10.9834 35.5641 12.1043 34.8718 12.8785C34.191 13.6527 33.1467 14.0398 31.7389 14.0398Z" fill="black"/>
<path d="M40.8056 4.00382C39.9748 4.00382 39.3459 3.79583 38.9189 3.37982C38.5035 2.96382 38.2958 2.44382 38.2958 1.81982H40.0267C40.0267 2.12027 40.0959 2.33982 40.2344 2.47849C40.3844 2.61716 40.5748 2.68649 40.8056 2.68649C41.0248 2.68649 41.1979 2.61716 41.3248 2.47849C41.4517 2.32827 41.5152 2.10871 41.5152 1.81982H43.2461C43.2461 2.12027 43.1941 2.40338 43.0903 2.66916C42.9864 2.93494 42.8307 3.16605 42.6229 3.36249C42.4268 3.55894 42.1729 3.71494 41.8614 3.83049C41.5614 3.94605 41.2094 4.00382 40.8056 4.00382ZM39.2824 5.14782V10.5558L42.4326 5.14782H44.2672V13.8665H42.2768V8.47582L39.1266 13.8665H37.292V5.14782H39.2824Z" fill="black"/>
<rect width="16" height="16" rx="8" fill="#FC3F1D"/>
<path d="M9.12818 12.808H10.7996V3.20801H8.36847C5.92358 3.20801 4.63898 4.46499 4.63898 6.31592C4.63898 7.79391 5.34344 8.66412 6.60041 9.56196L4.41797 12.808H6.22747L8.65854 9.1752L7.81595 8.60887C6.7938 7.91822 6.29653 7.37952 6.29653 6.21923C6.29653 5.19707 7.0148 4.50643 8.38228 4.50643H9.12818V12.808Z" fill="white"/>
</svg>
