<svg width="62" height="21" viewBox="0 0 62 21" fill="none" xmlns="http://www.w3.org/2000/svg">
<g clip-path="url(#clip0_2056_4196)">
<path d="M51.3125 0.556396H10.1199C4.87818 0.556396 0.628906 4.847 0.628906 10.1397C0.628906 15.4324 4.87818 19.723 10.1199 19.723H51.3125C56.5543 19.723 60.8036 15.4324 60.8036 10.1397C60.8036 4.847 56.5543 0.556396 51.3125 0.556396Z" fill="black"/>
<path d="M34.7204 0.974365H10.1213C5.10749 0.974365 1.04297 5.07842 1.04297 10.141C1.04297 15.2036 5.10749 19.3077 10.1213 19.3077H34.7204C39.7343 19.3077 43.7988 15.2036 43.7988 10.141C43.7988 5.07842 39.7343 0.974365 34.7204 0.974365Z" fill="white"/>
<path d="M16.2282 10.141C16.2282 6.73528 13.4939 3.97437 10.1209 3.97437C6.74798 3.97437 4.01367 6.73528 4.01367 10.141C4.01367 13.5468 6.74798 16.3077 10.1209 16.3077C13.4939 16.3077 16.2282 13.5468 16.2282 10.141Z" fill="#FC3F1D"/>
<path d="M10.9806 13.8471H12.2565V6.44702H10.4006C8.53417 6.44702 7.5535 7.41595 7.5535 8.8427C7.5535 9.98198 8.09128 10.6528 9.05086 11.3449L7.38477 13.8471H8.76615L10.622 11.0468L9.97882 10.6102C9.19849 10.0778 8.81889 9.66257 8.81889 8.76817C8.81889 7.98027 9.36722 7.44788 10.4111 7.44788H10.9806V13.8471Z" fill="white"/>
<path fill-rule="evenodd" clip-rule="evenodd" d="M20.5353 6.78675V9.83072H21.8441C22.2412 9.83983 22.5842 9.78515 22.8731 9.6849C23.1529 9.58465 23.3785 9.4206 23.5229 9.19277C23.6674 8.96492 23.7486 8.66417 23.7486 8.2905C23.7486 7.78013 23.6041 7.40647 23.3064 7.1604C23.0175 6.91433 22.5482 6.78675 21.9255 6.78675H20.5353ZM20.5353 14.2326V11.216H21.8352C22.6295 11.216 23.3155 11.1157 23.8659 10.9243C24.4166 10.7329 24.8499 10.4231 25.1567 9.99477C25.4636 9.56642 25.6171 9.00137 25.6171 8.2905C25.6171 7.33357 25.3101 6.61358 24.6873 6.13967C24.0645 5.65665 23.1169 5.41968 21.8441 5.41968H18.7031V14.2326H20.5353ZM32.6718 13.4475L32.6719 13.4488C32.6809 13.7039 32.7079 13.9681 32.735 14.2323L30.9749 14.2326C30.957 14.1688 30.9299 14.0686 30.9028 13.9501C30.8667 13.8316 30.8487 13.7132 30.8305 13.5947H30.7675C30.614 13.7132 30.4515 13.8316 30.2619 13.941C30.0724 14.0595 29.8377 14.1506 29.5579 14.2144C29.2781 14.2873 28.9351 14.3238 28.538 14.3238C27.834 14.3238 27.2744 14.1506 26.8502 13.8043C26.426 13.458 26.2184 12.9658 26.2184 12.337C26.2184 11.8357 26.3628 11.4347 26.6426 11.1249C26.9224 10.815 27.3646 10.578 27.9514 10.4413C28.538 10.3046 29.3143 10.2226 30.253 10.2226H30.8305V9.96747C30.8305 9.74873 30.7764 9.56647 30.6592 9.42065C30.5418 9.27483 30.3792 9.17458 30.1536 9.1199C29.928 9.06522 29.6663 9.03787 29.3413 9.03787C29.0074 9.03787 28.6733 9.06522 28.3305 9.1199C27.9875 9.17458 27.6805 9.24748 27.4098 9.33862C27.1389 9.42977 26.9133 9.5209 26.7418 9.61203V8.29055C27.0217 8.14473 27.4098 8.01713 27.9061 7.91688C28.4026 7.80752 28.9713 7.76195 29.6211 7.76195C30.3071 7.76195 30.8757 7.82575 31.3179 7.97157C31.7603 8.10827 32.0942 8.34523 32.3199 8.67332C32.5455 9.00142 32.6538 9.43887 32.6538 9.97658V12.6742C32.6538 12.938 32.6629 13.1928 32.6718 13.4475ZM30.298 11.298C29.7565 11.298 29.3233 11.3254 28.9983 11.3891C28.6733 11.4529 28.4388 11.5532 28.2944 11.6899C28.1499 11.8357 28.0776 12.0271 28.0776 12.2732C28.0776 12.4555 28.1229 12.6195 28.2041 12.7471C28.2853 12.8747 28.4206 12.9749 28.5921 13.0478C28.7636 13.1208 28.9893 13.1663 29.2601 13.1663C29.6211 13.1663 29.928 13.1025 30.1988 12.9841C30.4605 12.8656 30.6772 12.7015 30.8487 12.4919V11.298H30.298ZM34.3186 14.7066V16.0281C34.6525 16.1465 35.0046 16.2012 35.3747 16.1921C35.7536 16.1921 36.0966 16.1466 36.3764 16.0645C36.6653 15.9825 36.918 15.8458 37.1436 15.6544C37.3693 15.463 37.5678 15.2352 37.7575 14.9527C37.9379 14.6701 38.1094 14.342 38.272 13.9502L40.8263 7.85313H39.0933L37.2458 12.6299L35.2753 7.85313H33.3799L36.2767 14.3776C36.2359 14.4439 36.1943 14.5049 36.1508 14.5608C36.0516 14.6884 35.9251 14.7886 35.7807 14.8524C35.6363 14.9162 35.4559 14.9436 35.2391 14.9436C35.0317 14.9436 34.8602 14.9253 34.7157 14.8798C34.5622 14.8433 34.436 14.7795 34.3186 14.7066Z" fill="black"/>
<path d="M57.9153 4.14038H46.2734V16.1404H57.9153V4.14038Z" fill="black"/>
<path d="M53.9287 8.7711L53.8733 8.69488C56.7016 6.38935 56.3873 6.04638 56.3873 6.04638C56.11 5.74153 55.8142 5.47476 55.4999 5.24611C55.0564 4.9222 54.5758 4.65545 54.0581 4.48396C51.9138 3.6837 49.3628 4.31248 47.8286 6.04638C45.7767 8.3138 45.7397 11.915 47.8101 14.2205C49.9913 16.6404 53.7069 16.7928 56.0545 14.5635L56.147 14.4682C56.1839 14.4301 56.2209 14.392 56.2394 14.3539C56.9049 13.4774 55.9067 11.0957 53.9287 8.7711ZM55.7403 13.9157C55.5924 14.0681 54.964 14.0871 53.9472 13.5346C53.0045 13.0201 51.9508 12.1437 50.9527 11.0766C50.7863 11.21 53.559 8.96163 53.4296 9.07596C54.2985 10.1049 55.0379 11.2291 55.426 12.1627C55.8882 13.2488 55.8697 13.7823 55.7403 13.9157Z" fill="white"/>
<path fill-rule="evenodd" clip-rule="evenodd" d="M10.1205 0.973714C5.10663 0.973714 1.0421 5.07777 1.0421 10.1404C1.0421 15.203 5.10663 19.3071 10.1205 19.3071H51.3131C56.327 19.3071 60.3915 15.203 60.3915 10.1404C60.3915 5.07777 56.327 0.973714 51.3131 0.973714H10.1205ZM0.216797 10.1404C0.216797 4.61753 4.65082 0.140381 10.1205 0.140381H51.3131C56.7828 0.140381 61.2168 4.61753 61.2168 10.1404C61.2168 15.6632 56.7828 20.1404 51.3131 20.1404H10.1205C4.65082 20.1404 0.216797 15.6632 0.216797 10.1404Z" fill="black"/>
</g>
<defs>
<clipPath id="clip0_2056_4196">
<rect width="61" height="20" fill="white" transform="translate(0.216797 0.140381)"/>
</clipPath>
</defs>
</svg>
