<svg width="32" height="32" viewBox="0 0 32 32" fill="none" xmlns="http://www.w3.org/2000/svg">
<g clip-path="url(#clip0_1_8312)">
<path opacity="0.08" d="M28 0H4C1.79086 0 0 1.79086 0 4V28C0 30.2091 1.79086 32 4 32H28C30.2091 32 32 30.2091 32 28V4C32 1.79086 30.2091 0 28 0Z" fill="#B182BC"/>
<path fill-rule="evenodd" clip-rule="evenodd" d="M13.8659 11.4668C14.1846 11.4668 14.4729 11.6559 14.5998 11.9483L16.2496 15.7498L20.0511 17.3995C20.3434 17.5264 20.5326 17.8147 20.5326 18.1334C20.5326 18.4521 20.3434 18.7404 20.0511 18.8673L16.2496 20.5171L14.5998 24.3186C14.4729 24.6109 14.1846 24.8001 13.8659 24.8001C13.5472 24.8001 13.2589 24.6109 13.132 24.3186L11.4823 20.5171L7.68073 18.8673C7.38838 18.7404 7.19922 18.4521 7.19922 18.1334C7.19922 17.8147 7.38838 17.5264 7.68073 17.3995L11.4823 15.7498L13.132 11.9483C13.2589 11.6559 13.5472 11.4668 13.8659 11.4668ZM13.8659 14.2763L12.8243 16.6764C12.7435 16.8625 12.595 17.011 12.4089 17.0918L10.0088 18.1334L12.4089 19.175C12.595 19.2558 12.7435 19.4043 12.8243 19.5904L13.8659 21.9906L14.9075 19.5904C14.9883 19.4043 15.1368 19.2558 15.3229 19.175L17.7231 18.1334L15.3229 17.0918C15.1368 17.011 14.9883 16.8625 14.9075 16.6764L13.8659 14.2763Z" fill="black"/>
<path fill-rule="evenodd" clip-rule="evenodd" d="M20.5342 6.66699C20.8529 6.66699 21.1412 6.85615 21.2681 7.1485L22.1915 9.27634L24.3194 10.1997C24.6117 10.3266 24.8009 10.6149 24.8009 10.9336C24.8009 11.2523 24.6117 11.5406 24.3194 11.6675L22.1915 12.5909L21.2681 14.7188C21.1412 15.0111 20.8529 15.2003 20.5342 15.2003C20.2155 15.2003 19.9272 15.0111 19.8004 14.7188L18.8769 12.5909L16.7491 11.6675C16.4567 11.5406 16.2676 11.2523 16.2676 10.9336C16.2676 10.6149 16.4567 10.3266 16.7491 10.1997L18.8769 9.27634L19.8004 7.1485C19.9272 6.85615 20.2155 6.66699 20.5342 6.66699ZM20.5342 9.47649L20.2189 10.2029C20.1382 10.3891 19.9897 10.5376 19.8036 10.6183L19.0771 10.9336L19.8036 11.2489C19.9897 11.3297 20.1382 11.4782 20.2189 11.6643L20.5342 12.3908L20.8495 11.6643C20.9303 11.4782 21.0788 11.3297 21.2649 11.2489L21.9914 10.9336L21.2649 10.6183C21.0788 10.5376 20.9303 10.3891 20.8495 10.2029L20.5342 9.47649Z" fill="#B182BC"/>
</g>
<defs>
<clipPath id="clip0_1_8312">
<rect width="32" height="32" fill="white"/>
</clipPath>
</defs>
</svg>
