<svg aria-hidden="true" xmlns="http://www.w3.org/2000/svg" xmlns:xlink="http://www.w3.org/1999/xlink"><symbol viewBox="0 0 24 24" fill="none" id="icon-arrow" xmlns="http://www.w3.org/2000/svg">
<path d="M20 8L12 16L4 8" stroke="currentColor" stroke-width="2" stroke-linecap="round" stroke-linejoin="round"/>
</symbol><symbol viewBox="0 0 24 24" fill="none" id="icon-arrow-line" xmlns="http://www.w3.org/2000/svg">
<path d="M18.75 12L5.25 12" stroke="currentColor" stroke-width="2.5" stroke-linecap="round" stroke-linejoin="round"/>
<path d="M12 18.75L5.25 12L12 5.25" stroke="currentColor" stroke-width="2.5" stroke-linecap="round" stroke-linejoin="round"/>
</symbol><symbol viewBox="0 0 32 32" fill="none" id="icon-burger" xmlns="http://www.w3.org/2000/svg">
<path d="M4 16H28" stroke="currentColor" stroke-width="3" stroke-linecap="round" stroke-linejoin="round"/>
<path d="M4 8H28" stroke="currentColor" stroke-width="3" stroke-linecap="round" stroke-linejoin="round"/>
<path d="M4 24H28" stroke="currentColor" stroke-width="3" stroke-linecap="round" stroke-linejoin="round"/>
</symbol><symbol viewBox="0 0 33 32" fill="none" id="icon-cart" xmlns="http://www.w3.org/2000/svg">
<path d="M6.02354 10.8596C6.08075 10.0756 6.7335 9.46875 7.51956 9.46875H25.4089C26.195 9.46875 26.8477 10.0756 26.9049 10.8596L28.0316 26.298C28.095 27.1671 27.407 27.9071 26.5356 27.9071H6.39293C5.52149 27.9071 4.83348 27.1671 4.8969 26.298L6.02354 10.8596Z" stroke="currentColor" stroke-width="2"/>
<path fill-rule="evenodd" clip-rule="evenodd" d="M13.4883 6.70743C13.4883 6.70743 13.4883 6.70743 13.4883 6.70743C13.4883 6.70743 13.4883 6.70743 13.4883 6.70742L13.4883 6.70051L13.4883 6.6926C13.4883 5.16355 14.7698 3.83301 16.464 3.83301C18.1583 3.83301 19.4397 5.16352 19.4398 6.69256L19.4398 7.91347V14.3752C19.4398 15.0656 19.9994 15.6252 20.6898 15.6252C21.3801 15.6252 21.9398 15.0656 21.9398 14.3752V9.19252V6.69253C21.9398 6.69252 21.9398 6.69252 21.9398 6.69252C21.9398 6.69252 21.9398 6.69251 21.9398 6.69251C21.9397 3.73253 19.4882 1.33301 16.464 1.33301C13.4399 1.33301 10.9883 3.73258 10.9883 6.6926L10.9883 6.70743V14.3752C10.9883 15.0656 11.5479 15.6252 12.2383 15.6252C12.9287 15.6252 13.4883 15.0656 13.4883 14.3752V6.70743Z" fill="currentColor"/>
</symbol><symbol viewBox="0 0 32 32" fill="none" id="icon-close" xmlns="http://www.w3.org/2000/svg">
<path d="M8 8L24.9706 24.9706" stroke="currentColor" stroke-width="3" stroke-linecap="round" stroke-linejoin="round"/>
<path d="M8 25L24.9706 8.02944" stroke="currentColor" stroke-width="3" stroke-linecap="round" stroke-linejoin="round"/>
</symbol><symbol viewBox="0 0 32 32" fill="none" id="icon-copy" xmlns="http://www.w3.org/2000/svg">
<path d="M21.3337 17.1993V22.7993C21.3337 27.466 19.467 29.3327 14.8003 29.3327H9.20033C4.53366 29.3327 2.66699 27.466 2.66699 22.7993V17.1993C2.66699 12.5327 4.53366 10.666 9.20033 10.666H14.8003C19.467 10.666 21.3337 12.5327 21.3337 17.1993Z" stroke="currentColor" stroke-width="2" stroke-linecap="round" stroke-linejoin="round"/>
<path d="M29.3337 9.19935V14.7993C29.3337 19.466 27.467 21.3327 22.8003 21.3327H21.3337V17.1993C21.3337 12.5327 19.467 10.666 14.8003 10.666H10.667V9.19935C10.667 4.53268 12.5337 2.66602 17.2003 2.66602H22.8003C27.467 2.66602 29.3337 4.53268 29.3337 9.19935Z" stroke="currentColor" stroke-width="2" stroke-linecap="round" stroke-linejoin="round"/>
</symbol><symbol viewBox="0 0 24 24" fill="none" id="icon-edit" xmlns="http://www.w3.org/2000/svg">
<path d="M12 20H21" stroke="currentColor" stroke-width="2" stroke-linecap="round" stroke-linejoin="round"/>
<path d="M16.5 3.50023C16.8978 3.1024 17.4374 2.87891 18 2.87891C18.2786 2.87891 18.5544 2.93378 18.8118 3.04038C19.0692 3.14699 19.303 3.30324 19.5 3.50023C19.697 3.69721 19.8532 3.93106 19.9598 4.18843C20.0665 4.4458 20.1213 4.72165 20.1213 5.00023C20.1213 5.2788 20.0665 5.55465 19.9598 5.81202C19.8532 6.06939 19.697 6.30324 19.5 6.50023L7 19.0002L3 20.0002L4 16.0002L16.5 3.50023Z" stroke="currentColor" stroke-width="2" stroke-linecap="round" stroke-linejoin="round"/>
</symbol><symbol viewBox="0 0 49 37" fill="none" id="icon-eye" xmlns="http://www.w3.org/2000/svg">
<path fill-rule="evenodd" clip-rule="evenodd" d="M24.513 0.92601C35.087 1.07601 43.762 10.583 48.107 18.763C48.107 18.763 46.578 21.892 45.144 23.895C44.45 24.864 43.72 25.808 42.953 26.721C42.406 27.371 41.841 28.004 41.255 28.619C36.018 34.119 28.497 38.222 20.555 36.629C11.732 34.859 4.53498 27.299 0.208984 19.168C0.208984 19.168 1.74498 16.036 3.18699 14.036C3.83299 13.139 4.51098 12.266 5.22098 11.419C5.76498 10.77 6.32898 10.137 6.91198 9.52201C11.539 4.64601 17.476 0.89201 24.513 0.92601ZM24.476 4.92601C18.586 4.90401 13.688 8.19301 9.81298 12.276C9.28598 12.831 8.77798 13.403 8.28598 13.989C7.63898 14.761 7.02098 15.558 6.43198 16.375C5.84298 17.191 5.23898 18.221 4.75998 19.096C8.57398 25.505 14.299 31.294 21.342 32.707C27.905 34.024 34.03 30.406 38.358 25.861C38.887 25.306 39.398 24.733 39.892 24.146C40.592 23.313 41.258 22.452 41.891 21.567C42.477 20.748 43.08 19.716 43.558 18.84C39.6 12.215 32.828 5.05601 24.476 4.92601Z" fill="currentColor"/>
<path fill-rule="evenodd" clip-rule="evenodd" d="M24.1576 10.948C28.5826 10.948 32.1756 14.541 32.1756 18.965C32.1756 23.39 28.5826 26.982 24.1576 26.982C19.7336 26.982 16.1406 23.39 16.1406 18.965C16.1406 14.541 19.7336 10.948 24.1576 10.948ZM24.1576 14.957C26.3706 14.957 28.1666 16.753 28.1666 18.965C28.1666 21.178 26.3706 22.974 24.1576 22.974C21.9456 22.974 20.1496 21.178 20.1496 18.965C20.1496 16.753 21.9456 14.957 24.1576 14.957Z" fill="currentColor"/>
</symbol><symbol viewBox="0 0 24 24" fill="none" id="icon-eye-off" xmlns="http://www.w3.org/2000/svg">
<g clip-path="url(#hclip0_1_8148)">
<path d="M17.94 17.94C16.2306 19.243 14.1491 19.9649 12 20C5 20 1 12 1 12C2.24389 9.68192 3.96914 7.65663 6.06 6.06003M9.9 4.24002C10.5883 4.0789 11.2931 3.99836 12 4.00003C19 4.00003 23 12 23 12C22.393 13.1356 21.6691 14.2048 20.84 15.19M14.12 14.12C13.8454 14.4148 13.5141 14.6512 13.1462 14.8151C12.7782 14.9791 12.3809 15.0673 11.9781 15.0744C11.5753 15.0815 11.1752 15.0074 10.8016 14.8565C10.4281 14.7056 10.0887 14.4811 9.80385 14.1962C9.51897 13.9113 9.29439 13.572 9.14351 13.1984C8.99262 12.8249 8.91853 12.4247 8.92563 12.0219C8.93274 11.6191 9.02091 11.2219 9.18488 10.8539C9.34884 10.4859 9.58525 10.1547 9.88 9.88003" stroke="currentColor" stroke-width="2" stroke-linecap="round" stroke-linejoin="round"/>
<path d="M1 1L23 23" stroke="currentColor" stroke-width="2" stroke-linecap="round" stroke-linejoin="round"/>
</g>
<defs>
<clipPath id="hclip0_1_8148">
<rect width="24" height="24" fill="currentColor"/>
</clipPath>
</defs>
</symbol><symbol viewBox="0 0 24 24" fill="none" id="icon-filter" xmlns="http://www.w3.org/2000/svg">
<circle cx="5" cy="8" r="3" stroke="currentColor" stroke-width="2"/>
<circle cx="3" cy="3" r="3" transform="matrix(1 0 0 -1 15 19)" stroke="currentColor" stroke-width="2"/>
<path d="M12 8H21" stroke="currentColor" stroke-width="2" stroke-linecap="round"/>
<path d="M2 16H11" stroke="currentColor" stroke-width="2" stroke-linecap="round"/>
</symbol><symbol viewBox="0 0 32 32" fill="none" id="icon-heart" xmlns="http://www.w3.org/2000/svg">
<path d="M27.7862 6.14715C27.1052 5.46582 26.2966 4.92534 25.4066 4.55659C24.5167 4.18784 23.5628 3.99805 22.5995 3.99805C21.6362 3.99805 20.6823 4.18784 19.7924 4.55659C18.9024 4.92534 18.0938 5.46582 17.4128 6.14715L15.9995 7.56048L14.5862 6.14715C13.2106 4.77156 11.3449 3.99876 9.39951 3.99876C7.45413 3.99876 5.58843 4.77156 4.21284 6.14715C2.83725 7.52274 2.06445 9.38844 2.06445 11.3338C2.06445 13.2792 2.83725 15.1449 4.21284 16.5205L5.62617 17.9338L15.9995 28.3071L26.3728 17.9338L27.7862 16.5205C28.4675 15.8395 29.008 15.0309 29.3767 14.141C29.7455 13.251 29.9353 12.2971 29.9353 11.3338C29.9353 10.3705 29.7455 9.41662 29.3767 8.52667C29.008 7.63673 28.4675 6.82816 27.7862 6.14715Z" fill="currentColor" stroke-width="2" stroke-linecap="round" stroke-linejoin="round"/>
</symbol><symbol viewBox="0 0 33 32" fill="none" id="icon-location" xmlns="http://www.w3.org/2000/svg">
<path d="M27.3002 13.5998C27.3002 21.9998 16.5002 29.1998 16.5002 29.1998C16.5002 29.1998 5.7002 21.9998 5.7002 13.5998C5.7002 10.7355 6.83805 7.98844 8.86344 5.96305C10.8888 3.93766 13.6359 2.7998 16.5002 2.7998C19.3645 2.7998 22.1116 3.93766 24.1369 5.96305C26.1623 7.98844 27.3002 10.7355 27.3002 13.5998Z" stroke="currentColor" stroke-width="2" stroke-linecap="round" stroke-linejoin="round"/>
<path d="M16.5004 16.9998C18.4886 16.9998 20.1004 15.388 20.1004 13.3998C20.1004 11.4116 18.4886 9.7998 16.5004 9.7998C14.5122 9.7998 12.9004 11.4116 12.9004 13.3998C12.9004 15.388 14.5122 16.9998 16.5004 16.9998Z" stroke="currentColor" stroke-width="2" stroke-linecap="round" stroke-linejoin="round"/>
</symbol><symbol viewBox="0 0 56 56" fill="none" id="icon-mail" xmlns="http://www.w3.org/2000/svg">
<path d="M9.33268 9.33301H46.666C49.2327 9.33301 51.3327 11.433 51.3327 13.9997V41.9997C51.3327 44.5663 49.2327 46.6663 46.666 46.6663H9.33268C6.76602 46.6663 4.66602 44.5663 4.66602 41.9997V13.9997C4.66602 11.433 6.76602 9.33301 9.33268 9.33301Z" stroke="currentColor" stroke-width="4" stroke-linecap="round" stroke-linejoin="round"/>
<path d="M51.3327 14L27.9994 30.3333L4.66602 14" stroke="currentColor" stroke-width="4" stroke-linecap="round" stroke-linejoin="round"/>
</symbol><symbol viewBox="0 0 33 32" fill="none" id="icon-search" xmlns="http://www.w3.org/2000/svg">
<path d="M15 26C21.3513 26 26.5 20.8513 26.5 14.5C26.5 8.14873 21.3513 3 15 3C8.64873 3 3.5 8.14873 3.5 14.5C3.5 20.8513 8.64873 26 15 26Z" stroke="currentColor" stroke-width="2" stroke-linecap="round" stroke-linejoin="round"/>
<path d="M29.5 29L23.5 23" stroke="currentColor" stroke-width="2" stroke-linecap="round" stroke-linejoin="round"/>
</symbol><symbol viewBox="0 0 56 56" fill="none" id="icon-tel" xmlns="http://www.w3.org/2000/svg">
<path d="M51.3333 39.4796V46.4796C51.336 47.1294 51.2029 47.7726 50.9425 48.3681C50.6822 48.9635 50.3004 49.4979 49.8215 49.9373C49.3427 50.3766 48.7773 50.711 48.1618 50.9192C47.5462 51.1274 46.8939 51.2047 46.2467 51.1462C39.0666 50.3661 32.1697 47.9126 26.11 43.9829C20.4723 40.4005 15.6925 35.6206 12.11 29.9829C8.16662 23.8957 5.71257 16.9652 4.94667 9.75291C4.88836 9.10766 4.96505 8.45735 5.17184 7.84337C5.37863 7.22938 5.71101 6.66518 6.14779 6.18669C6.58458 5.7082 7.11622 5.3259 7.70885 5.06413C8.30149 4.80236 8.94213 4.66685 9.59001 4.66624H16.59C17.7224 4.6551 18.8202 5.05609 19.6788 5.79448C20.5374 6.53288 21.0982 7.55828 21.2567 8.67958C21.5521 10.9197 22.1001 13.1193 22.89 15.2362C23.2039 16.0714 23.2719 16.979 23.0858 17.8516C22.8997 18.7242 22.4674 19.5252 21.84 20.1596L18.8767 23.1229C22.1983 28.9645 27.0351 33.8013 32.8767 37.1229L35.84 34.1596C36.4744 33.5322 37.2754 33.0999 38.148 32.9138C39.0205 32.7277 39.9282 32.7956 40.7633 33.1096C42.8803 33.8995 45.0799 34.4475 47.32 34.7429C48.4535 34.9028 49.4886 35.4737 50.2286 36.3471C50.9686 37.2204 51.3617 38.3353 51.3333 39.4796Z" stroke="currentColor" stroke-width="4" stroke-linecap="round" stroke-linejoin="round"/>
</symbol><symbol viewBox="0 0 56 56" fill="none" id="icon-time" xmlns="http://www.w3.org/2000/svg">
<path d="M27.9994 51.3337C40.886 51.3337 51.3327 40.887 51.3327 28.0003C51.3327 15.1137 40.886 4.66699 27.9994 4.66699C15.1127 4.66699 4.66602 15.1137 4.66602 28.0003C4.66602 40.887 15.1127 51.3337 27.9994 51.3337Z" stroke="currentColor" stroke-width="4" stroke-linecap="round" stroke-linejoin="round"/>
<path d="M28 14V28L37.3333 32.6667" stroke="currentColor" stroke-width="4" stroke-linecap="round" stroke-linejoin="round"/>
</symbol><symbol viewBox="0 0 24 24" fill="none" id="icon-trash" xmlns="http://www.w3.org/2000/svg">
<path d="M3 6H5H21" stroke="currentColor" stroke-width="2" stroke-linecap="round" stroke-linejoin="round"/>
<path d="M19 6V20C19 20.5304 18.7893 21.0391 18.4142 21.4142C18.0391 21.7893 17.5304 22 17 22H7C6.46957 22 5.96086 21.7893 5.58579 21.4142C5.21071 21.0391 5 20.5304 5 20V6M8 6V4C8 3.46957 8.21071 2.96086 8.58579 2.58579C8.96086 2.21071 9.46957 2 10 2H14C14.5304 2 15.0391 2.21071 15.4142 2.58579C15.7893 2.96086 16 3.46957 16 4V6" stroke="currentColor" stroke-width="2" stroke-linecap="round" stroke-linejoin="round"/>
</symbol><symbol viewBox="0 0 33 32" fill="none" id="icon-user" xmlns="http://www.w3.org/2000/svg">
<path d="M27.1673 28V25.3333C27.1673 23.9188 26.6054 22.5623 25.6052 21.5621C24.605 20.5619 23.2485 20 21.834 20H11.1673C9.75283 20 8.39628 20.5619 7.39608 21.5621C6.39589 22.5623 5.83398 23.9188 5.83398 25.3333V28" stroke="currentColor" stroke-width="2" stroke-linecap="round" stroke-linejoin="round"/>
<path d="M16.4993 14.6667C19.4449 14.6667 21.8327 12.2789 21.8327 9.33333C21.8327 6.38781 19.4449 4 16.4993 4C13.5538 4 11.166 6.38781 11.166 9.33333C11.166 12.2789 13.5538 14.6667 16.4993 14.6667Z" stroke="currentColor" stroke-width="2" stroke-linecap="round" stroke-linejoin="round"/>
</symbol></svg>